<svg xmlns:xlink="http://www.w3.org/1999/xlink" width="128" height="128" viewBox="0 0 128 128" fill="none" xmlns="http://www.w3.org/2000/svg">
<path d="M9.8999 52.2998L36.5999 69.5998V94.9998L9.8999 77.6998V52.2998Z" fill="#FFFFFF"></path>
<path fill-rule="evenodd" clip-rule="evenodd" d="M34.8999 72.7C34.6999 72.7 34.4999 72.6 34.3999 72.5L9.4 53.1C9.1 52.9 9 52.6 9 52.3C9 52 9.2 51.7 9.4 51.5L36.1 34.2C36.3 34.1 36.4 34 36.6 34C36.8 34 37 34.1 37.1 34.2L63.8 51.5C64.1 51.7 64.2 52 64.2 52.3C64.2 52.6 64 52.9 63.8 53.1L35.3999 72.5C35.1999 72.6 34.9999 72.7 34.8999 72.7ZM11.6 52.3L34.7999 70.6L61.4 52.3L36.6 36.1L11.6 52.3Z" fill="#FFFFFF"></path>
<path fill-rule="evenodd" clip-rule="evenodd" d="M36.6 95.8999C36.4 95.8999 36.2 95.7999 36.1 95.6999L9.4 78.4999C9.1 78.2999 9 77.9999 9 77.6999V52.2999C9 51.7999 9.4 51.3999 9.9 51.3999C10.4 51.3999 10.8 51.7999 10.8 52.2999V77.0999L36.5 93.7999L62.2 77.0999V52.2999C62.2 51.7999 62.6 51.3999 63.1 51.3999C63.6 51.3999 64 51.7999 64 52.2999V77.6999C64 77.9999 63.8 78.2999 63.6 78.4999L37.1 95.7999C36.9 95.8999 36.7 95.8999 36.6 95.8999Z" fill="#FFFFFF"></path>
<path d="M97.0999 38.2001L115.5 25.1001V44.4001L97.0999 57.5001V38.2001V38.2001Z" fill="#FFFFFF"></path>
<path fill-rule="evenodd" clip-rule="evenodd" d="M97.8999 40.2C97.6999 40.2 97.4999 40.1 97.3999 40L78.4 26.9C78.2 26.7 78 26.4 78 26.1C78 25.8 78.1 25.5 78.4 25.3L96.6 12.2C96.8 12.1 96.9 12 97.1 12C97.3 12 97.5 12.1 97.6 12.2L116 25.3C116.2 25.5 116.4 25.8 116.4 26.1C116.4 26.4 116.3 26.7 116 26.9L98.4999 40.1C98.2999 40.2 98.0999 40.2 97.8999 40.2ZM80.5 26.1L97.8999 38.1L113.9 26.1L97.1 14.2L80.5 26.1Z" fill="#FFFFFF"></path>
<path fill-rule="evenodd" clip-rule="evenodd" d="M97.1 58.4002C96.9 58.4002 96.7 58.3002 96.6 58.2002L78.4 45.1002C78.2 44.9002 78 44.6002 78 44.3002V25.1002C78 24.6002 78.4 24.2002 78.9 24.2002C79.4 24.2002 79.8 24.6002 79.8 25.1002V43.9002L97.1 56.3002L114.5 43.9002V25.1002C114.5 24.6002 114.9 24.2002 115.4 24.2002C115.9 24.2002 116.3 24.6002 116.3 25.1002V44.4002C116.3 44.7002 116.2 45.0002 115.9 45.2002L97.5 58.3002C97.5 58.4002 97.3 58.4002 97.1 58.4002Z" fill="#FFFFFF"></path>
<path fill-rule="evenodd" clip-rule="evenodd" d="M97.0999 58.3998C96.5999 58.3998 96.2 57.9998 96.2 57.4998V38.1998C96.2 37.6998 96.5999 37.2998 97.0999 37.2998C97.5999 37.2998 97.9999 37.6998 97.9999 38.1998V57.4998C98.0999 57.9998 97.5999 58.3998 97.0999 58.3998Z" fill="#FFFFFF"></path>
<path d="M94.0999 99.4001V115L75.8999 104.4V88.6001L94.0999 99.4001Z" fill="#FFFFFF"></path>
<path fill-rule="evenodd" clip-rule="evenodd" d="M94.0999 100.3C93.8999 100.3 93.7999 100.3 93.5999 100.2L75.3999 89.4001C75.0999 89.2001 74.8999 88.9001 74.8999 88.6001C74.8999 88.3001 75.0999 88.0001 75.3999 87.8001L93.5999 77.2001C93.6999 77.1001 93.8999 77.1001 94.0999 77.1001C94.2999 77.1001 94.3999 77.1001 94.5999 77.2001L113 87.8001C113.3 88.0001 113.5 88.3001 113.5 88.6001C113.5 88.9001 113.3 89.2001 113 89.4001L94.5999 100.2C94.3999 100.2 94.2999 100.3 94.0999 100.3ZM77.7999 88.6001L94.1999 98.2001L110.7 88.6001L94.1999 79.1001L77.7999 88.6001Z" fill="#FFFFFF"></path>
<path fill-rule="evenodd" clip-rule="evenodd" d="M94.0999 115.9C93.8999 115.9 93.7999 115.9 93.5999 115.8L75.3999 105.2C75.0999 105 74.8999 104.7 74.8999 104.4V88.6002C74.8999 88.1002 75.2999 87.7002 75.7999 87.7002C76.2999 87.7002 76.6999 88.1002 76.6999 88.6002V103.8L93.9999 113.9L111.4 103.8V88.6002C111.4 88.1002 111.8 87.7002 112.3 87.7002C112.8 87.7002 113.2 88.1002 113.2 88.6002V104.3C113.2 104.6 113 104.9 112.7 105.1L94.2999 115.7C94.3999 115.9 94.2999 115.9 94.0999 115.9Z" fill="#FFFFFF"></path>
<path fill-rule="evenodd" clip-rule="evenodd" d="M77.1642 43.8574C77.3533 44.0586 77.3434 44.3751 77.1422 44.5641C73.7927 47.7106 69.8326 50.1481 65.4645 51.6718C65.2038 51.7628 64.9187 51.6251 64.8277 51.3644C64.7368 51.1037 64.8744 50.8186 65.1351 50.7276C69.367 49.2514 73.2069 46.8888 76.4575 43.8353C76.6587 43.6462 76.9752 43.6561 77.1642 43.8574Z" fill="#FFFFFF"></path>
<path fill-rule="evenodd" clip-rule="evenodd" d="M59.7192 79.6626C59.7951 79.3971 60.0718 79.2433 60.3373 79.3192C60.6016 79.3947 61.0683 79.4876 61.7014 79.6136C61.8455 79.6423 61.9983 79.6727 62.1593 79.705C63.0103 79.8758 64.0551 80.0936 65.162 80.3782C67.359 80.9431 69.8675 81.7874 71.6019 83.1014L71.607 83.1052L71.6069 83.1053C73.3994 84.4994 75.3024 86.0697 76.2595 88.303C76.3683 88.5568 76.2507 88.8507 75.9969 88.9595C75.7431 89.0683 75.4492 88.9507 75.3404 88.6969C74.4979 86.7311 72.8021 85.3018 70.9955 83.8966C69.43 82.7116 67.0898 81.9064 64.9129 81.3467C63.8323 81.0688 62.8084 80.8553 61.9625 80.6855C61.8129 80.6554 61.6676 80.6265 61.5278 80.5987C60.893 80.4725 60.3703 80.3686 60.0626 80.2807C59.7971 80.2048 59.6433 79.9281 59.7192 79.6626Z" fill="#FFFFFF"></path>
<path fill-rule="evenodd" clip-rule="evenodd" d="M83.4788 88.594C83.5926 88.1957 84.0077 87.9651 84.406 88.0789C87.2938 88.9039 89.9681 90.2424 92.3283 91.8843C92.6683 92.1209 92.7522 92.5883 92.5156 92.9283C92.2791 93.2683 91.8117 93.3522 91.4717 93.1157C89.2319 91.5575 86.7061 90.2961 83.9939 89.5211C83.5956 89.4073 83.365 88.9922 83.4788 88.594Z" fill="#FFFFFF"></path>
<path fill-rule="evenodd" clip-rule="evenodd" d="M31.3658 33.6549C31.5564 34.0226 31.4129 34.4753 31.0452 34.666C25.6981 37.4386 20.7474 40.805 16.1921 44.7661C15.8795 45.0379 15.4058 45.0049 15.134 44.6923C14.8622 44.3797 14.8953 43.906 15.2078 43.6342C19.8526 39.5953 24.9019 36.1617 30.3547 33.3343C30.7224 33.1437 31.1751 33.2872 31.3658 33.6549Z" fill="#FFFFFF"></path>
<path fill-rule="evenodd" clip-rule="evenodd" d="M115.93 46.9697C116.223 47.2626 116.223 47.7374 115.93 48.0303C112.187 51.7738 108.038 55.0117 103.486 57.7431C103.131 57.9562 102.67 57.8411 102.457 57.4859C102.244 57.1307 102.359 56.67 102.714 56.4569C107.162 53.7883 111.213 50.6262 114.87 46.9697C115.162 46.6768 115.637 46.6768 115.93 46.9697Z" fill="#FFFFFF"></path>
<path fill-rule="evenodd" clip-rule="evenodd" d="M29.6287 30.4912C29.8545 30.8385 29.7559 31.3031 29.4086 31.5288C27.9365 32.4857 26.4049 33.3923 24.9139 34.275C24.364 34.6005 23.8196 34.9228 23.2858 35.2431C22.9306 35.4562 22.4699 35.341 22.2568 34.9859C22.0437 34.6307 22.1588 34.17 22.514 33.9569C23.0645 33.6266 23.619 33.2983 24.1748 32.9693C25.6569 32.0919 27.1475 31.2096 28.5912 30.2712C28.9384 30.0454 29.403 30.144 29.6287 30.4912Z" fill="#FFFFFF"></path>
<path fill-rule="evenodd" clip-rule="evenodd" d="M119.13 48.3696C119.423 48.6625 119.423 49.1373 119.13 49.4302L119.083 49.4777C117.278 51.2824 116.371 52.1896 115.357 52.9694C114.446 53.6706 113.449 54.2677 111.653 55.3431C111.442 55.4695 111.22 55.6025 110.986 55.743C110.631 55.9561 110.17 55.841 109.957 55.4858C109.744 55.1306 109.859 54.6699 110.214 54.4568C110.44 54.3209 110.654 54.1927 110.857 54.0712C112.69 52.9732 113.604 52.4254 114.443 51.7804C115.37 51.067 116.206 50.2333 118.07 48.3696C118.362 48.0767 118.837 48.0767 119.13 48.3696Z" fill="#FFFFFF"></path>
</svg>