<svg xmlns:xlink="http://www.w3.org/1999/xlink" width="128" height="128" viewBox="0 0 128 128" fill="none" xmlns="http://www.w3.org/2000/svg">
<path fill-rule="evenodd" clip-rule="evenodd" d="M15.7 85.6001C16.1 85.6001 16.5 86.0001 16.5 86.4001V100.1C16.5 100.5 16.2 100.9 15.7 100.9C15.2 100.9 14.9 100.5 14.9 100.1V86.4001C15 85.9001 15.3 85.6001 15.7 85.6001Z" fill="#FFFFFF"></path>
<path fill-rule="evenodd" clip-rule="evenodd" d="M92.2957 41L94 42.4342H31C26.9898 42.4342 17.4061 46.9146 17.4061 50.5L16.6041 72.2829C16.6041 72.6415 16.203 73 15.802 73C15.401 73 15 72.6415 15 72.2829L15.802 50.5C15.802 46.1975 26.1878 41 31 41H92.2957Z" fill="#FFFFFF"></path>
<path fill-rule="evenodd" clip-rule="evenodd" d="M109.7 46.1002L111 73.0002L109.7 100.1C109.7 100.5 109.4 100.9 108.9 100.9C108.4 100.9 108.1 100.5 108.1 100.1L108.9 73.0002L108.1 46.1002C108.1 43.2002 106.4 40.7002 103.9 39.6002L103.8 39.0002L104.7 38.2002C107.6 39.6002 109.7 42.6002 109.7 46.1002Z" fill="#FFFFFF"></path>
<path fill-rule="evenodd" clip-rule="evenodd" d="M11.7857 111C8.60357 111 6 108.207 6 104.793V99.8276C6 99.4138 6.38571 99 6.77143 99C6.77143 99 19.9329 98 28.5 98C37.0671 98 50.6464 99 50.6464 99C51.0321 99 51.4179 99.4138 51.4179 99.8276C51.4179 100.862 51.8036 101.69 52.4786 102.31C53.1536 102.828 54.2143 103.138 55.3714 103.138H64.9179C66.075 103.138 67.1357 102.828 67.8107 102.31C68.4857 101.793 68.8714 100.966 68.8714 99.8276C68.8714 99.4138 69.2571 99 69.6429 99H113.229C113.614 99 114 99.4138 114 99.8276V104.793C114 108.207 111.396 111 108.214 111H11.7857ZM7.54286 104.793C7.54286 107.276 9.47143 109.345 11.7857 109.345H108.311C110.625 109.345 112.554 107.276 112.554 104.793V100.655H70.4143L70.3179 101.069C70.125 102.103 69.5464 102.931 68.775 103.552C67.5214 104.483 66.075 104.69 65.0143 104.69H55.4679C54.4071 104.69 52.8643 104.483 51.7071 103.552C50.9357 102.931 50.3571 102.103 50.1643 101.069L50.0679 100.655C25.5 98.0343 24.1499 100.655 7.54286 100.655V104.793Z" fill="#FFFFFF"></path>
<path d="M54 81.0001L55.1 88.2001H33.5L34.6 81.0001C34.9 79.0001 36.5 77.6001 38.5 77.6001H44.2H49.9C52 77.6001 53.7 79.1001 54 81.0001Z" fill="#FFFFFF"></path>
<path d="M47.6 66.5998C48.7 67.5998 49.4 68.8998 49.4 70.3998C49.4 70.6998 49.4 70.7998 49.4 71.0998C49.1 73.5998 46.9 75.4998 44.4 75.4998C41.5 75.4998 39.4 73.1998 39.4 70.4998C39.4 70.1998 39.4 69.9998 39.4 69.6998C39.8 67.1998 41.9 65.2998 44.4 65.2998C44.5 65.2998 44.8 65.2998 44.9 65.2998C45.8 65.4998 46.8 65.8998 47.6 66.5998Z" fill="#FFFFFF"></path>
<path fill-rule="evenodd" clip-rule="evenodd" d="M74.5001 78.3501C72.88 78.3501 71.588 79.4699 71.3418 81.1114L71.3415 81.1134L70.3734 87.4501H90.3268L89.3593 81.1171C89.3592 81.1164 89.3591 81.1158 89.359 81.1152C89.1169 79.5879 87.7378 78.3501 86.0001 78.3501H74.5001ZM69.8586 80.8878C70.2128 78.5298 72.1206 76.8501 74.5001 76.8501H86.0001C88.4618 76.8501 90.4822 78.6113 90.8409 80.8831L90.8415 80.8868L92.0734 88.9501H68.6268L69.8584 80.8888C69.8585 80.8885 69.8585 80.8881 69.8586 80.8878Z" fill="#FFFFFF"></path>
<path fill-rule="evenodd" clip-rule="evenodd" d="M76.25 69.7617V70.4998C76.25 72.8054 78.0337 74.7498 80.5 74.7498C82.6152 74.7498 84.4764 73.1462 84.75 71.0531V70.3998C84.75 69.1544 84.1744 68.0468 83.2008 67.1596C82.5451 66.5879 81.7089 66.2362 80.9154 66.0498H80.5006C78.4131 66.0498 76.6182 67.6283 76.25 69.7617ZM74.7594 69.5813C75.2135 66.7433 77.6059 64.5498 80.5 64.5498H81.0823L81.1627 64.5677C82.1442 64.7858 83.2719 65.2287 84.1939 66.0354L84.1992 66.0401L84.2045 66.0448C85.4277 67.1568 86.25 68.6475 86.25 70.3998V71.1446L86.2447 71.1892C85.8983 74.0752 83.3705 76.2498 80.5 76.2498C77.1663 76.2498 74.75 73.5942 74.75 70.4998V69.6402L74.7594 69.5813Z" fill="#FFFFFF"></path>
<path d="M112.4 14H85.2C80.7 14 77 17.7 77 22.2V49.4C77 53.9 80.7 57.6 85.2 57.6H112.4C116.9 57.6 120.6 53.9 120.6 49.4V22.2C120.6 17.7 116.9 14 112.4 14ZM98.9 42.7L92.8 45.8L93.8 39L93.7 38.9L92 37.3L88.9 34.3L95.7 33.3L98.8 27L101.8 33.3L108.6 34.3L104.6 38.2L103.7 39L103.8 39.6L104.9 45.8L98.9 42.7Z" fill="#FFFFFF"></path>
<path fill-rule="evenodd" clip-rule="evenodd" d="M12.1001 110.8L15.7001 113.4H114L112.2 109.2L12.1001 110.8Z" fill="#FFFFFF"></path>
<path fill-rule="evenodd" clip-rule="evenodd" d="M10.0856 23.0544C10.387 22.7703 10.8616 22.7842 11.1458 23.0856C14.5248 26.6694 17.0838 31.0706 18.5176 35.7817C18.6382 36.178 18.4147 36.597 18.0185 36.7176C17.6222 36.8382 17.2032 36.6147 17.0826 36.2185C15.7164 31.7296 13.2754 27.5308 10.0544 24.1146C9.77025 23.8132 9.78421 23.3386 10.0856 23.0544Z" fill="#FFFFFF"></path>
<path fill-rule="evenodd" clip-rule="evenodd" d="M27.6592 23.2068C27.9867 23.4604 28.0466 23.9314 27.7931 24.259C25.4742 27.2541 23.9273 30.928 23.4442 34.7929C23.3929 35.2039 23.018 35.4954 22.607 35.444C22.196 35.3927 21.9044 35.0178 21.9558 34.6068C22.4727 30.4716 24.1258 26.5455 26.607 23.3407C26.8606 23.0132 27.3316 22.9532 27.6592 23.2068Z" fill="#FFFFFF"></path>
<path fill-rule="evenodd" clip-rule="evenodd" d="M2.89282 34.4503C3.03067 34.0597 3.45907 33.8548 3.84967 33.9927C5.54779 34.592 7.27116 35.1914 8.99645 35.7915L8.99735 35.7919C10.7218 36.3916 12.4481 36.9921 14.1497 37.5927C14.5403 37.7305 14.7452 38.1589 14.6073 38.5495C14.4694 38.9401 14.041 39.145 13.6504 39.0072C11.9523 38.4078 10.229 37.8084 8.50367 37.2083L8.50288 37.208C6.77843 36.6082 5.05207 36.0077 3.35044 35.4072C2.95984 35.2693 2.75496 34.8409 2.89282 34.4503Z" fill="#FFFFFF"></path>
</svg>