<svg xmlns:xlink="http://www.w3.org/1999/xlink" width="128" height="128" viewBox="0 0 128 128" fill="none" xmlns="http://www.w3.org/2000/svg">
<path fill-rule="evenodd" clip-rule="evenodd" d="M46.5999 88.8C46.3999 88.8 46.1999 88.7 46.0999 88.6C45.9999 88.5 45.8999 88.3 45.8999 88.1V56.5L48.0999 24.4C48.3999 16.9 54.3999 11 61.8999 11C69.3999 11 75.3999 16.9 75.6999 24.4L77.8999 88.1C77.8999 88.3 77.7999 88.5 77.6999 88.6C77.5999 88.7 77.3999 88.8 77.1999 88.8H46.5999ZM61.7999 12.4C55.0999 12.4 49.6999 17.7 49.3999 24.4C47.1592 49.4905 46.6486 63.2362 47.2999 87.4H76.2999C76.7048 62.9164 76.1891 49.0758 74.1999 24.4C73.9999 17.7 68.4999 12.4 61.7999 12.4Z" fill="#FFFFFF"></path>
<path fill-rule="evenodd" clip-rule="evenodd" d="M29.2 86.1C29 86.1 28.8 86 28.7 85.9C28.6 85.8 28.5 85.6 28.5 85.4L32.7 60C33.3 54.1 38 49.5 43.5 49.5H46.7C47.1 49.5 47.4 49.8 47.4 50.2C47.4 50.6 47.1 50.9 46.7 50.9H43.5C38.7 50.9 34.5 55 34.1 60.1L30 84.6H44.8C45.2 84.6 45.5 84.9 45.5 85.3C45.5 85.7 45.2 86 44.8 86H29.2V86.1Z" fill="#FFFFFF"></path>
<path fill-rule="evenodd" clip-rule="evenodd" d="M77.2999 87.0999C76.8999 87.0999 76.5999 86.7999 76.5999 86.3999C76.5999 85.9999 76.8999 85.6999 77.2999 85.6999H91.9999L89.8999 60.0999C89.3999 54.8999 85.2999 50.7999 80.4999 50.7999H77.2999C76.8999 50.7999 76.5999 50.4999 76.5999 50.0999C76.5999 49.6999 76.8999 49.3999 77.2999 49.3999H80.4999C85.9999 49.3999 90.7999 53.9999 91.2999 59.8999L93.4999 86.1999C93.4999 86.3999 93.3999 86.5999 93.2999 86.6999C93.1999 86.7999 92.9999 86.8999 92.7999 86.8999H77.2999V87.0999Z" fill="#FFFFFF"></path>
<path fill-rule="evenodd" clip-rule="evenodd" d="M61.9998 46.6002C57.9998 46.6002 54.7998 43.4002 54.7998 39.4002C54.7998 35.4002 57.9998 32.2002 61.9998 32.2002C65.9998 32.2002 69.1998 35.4002 69.1998 39.4002C69.1998 43.4002 65.9998 46.6002 61.9998 46.6002ZM61.9998 33.6002C58.7998 33.6002 56.1998 36.2002 56.1998 39.4002C56.1998 42.6002 58.7998 45.2002 61.9998 45.2002C65.1998 45.2002 67.7998 42.6002 67.7998 39.4002C67.7998 36.2002 65.1998 33.6002 61.9998 33.6002Z" fill="#FFFFFF"></path>
<path d="M77.2998 79.7998H46.7998V87.6998H77.1998V79.7998H77.2998Z" fill="#FFFFFF"></path>
<path d="M65.6999 68.1002L64.6999 91.9002C64.6999 93.4002 63.3999 94.6002 61.8999 94.6002C60.3999 94.6002 59.1999 93.5002 59.0999 91.9002L58.0999 68.1002C57.9999 65.9002 59.6999 64.2002 61.7999 64.2002C64.0999 64.3002 65.7999 66.0002 65.6999 68.1002Z" fill="#FFFFFF"></path>
<path fill-rule="evenodd" clip-rule="evenodd" d="M62 103.5C61.9 103.5 61.9 103.5 61.8 103.5C56 101.6 52.2 96.1999 52.2 90.0999C52.2 89.6999 52.5 89.3999 52.9 89.3999C53.3 89.3999 53.6 89.6999 53.6 90.0999C53.6 95.5999 57.1 100.4 62.3 102.1C62.7 102.2 62.9 102.6 62.7 103C62.6 103.3 62.3 103.5 62 103.5Z" fill="#FFFFFF"></path>
<path fill-rule="evenodd" clip-rule="evenodd" d="M61.9999 103.5C61.6999 103.5 61.3999 103.3 61.2999 103C61.1999 102.6 61.3999 102.2 61.6999 102.1C66.8999 100.4 70.3999 95.4999 70.3999 90.0999C70.3999 89.6999 70.6999 89.3999 71.0999 89.3999C71.4999 89.3999 71.7999 89.6999 71.7999 90.0999C71.7999 96.1999 67.8999 101.5 62.1999 103.5C62.1999 103.5 62.0999 103.5 61.9999 103.5Z" fill="#FFFFFF"></path>
<path d="M75.0999 24.7C74.7999 17.6 68.9999 12 61.9999 12C54.8999 12 49.1999 17.6 48.8999 24.7H75.0999Z" fill="#FFFFFF"></path>
<path fill-rule="evenodd" clip-rule="evenodd" d="M79.6814 97.1914C82.2265 95.6904 85.2456 94.8786 88.0018 95.2569C90.7472 95.6337 93.1047 97.0287 95.1345 98.8259C97.162 100.621 98.9014 102.852 100.41 104.964C100.651 105.301 100.573 105.769 100.236 106.01C99.8988 106.251 99.4304 106.173 99.1896 105.836C97.6984 103.748 96.0378 101.629 94.1402 99.9489C92.2451 98.2711 90.1525 97.0661 87.7979 96.7429C85.4541 96.4212 82.7733 97.1094 80.4434 98.4834C78.1131 99.8577 76.2273 101.863 75.4022 104.063C75.2567 104.451 74.8244 104.648 74.4366 104.502C74.0487 104.357 73.8522 103.924 73.9977 103.537C74.9725 100.937 77.1367 98.6921 79.6814 97.1914Z" fill="#FFFFFF"></path>
<path fill-rule="evenodd" clip-rule="evenodd" d="M105.719 106.728C102.612 105.976 98.7734 106.536 95.6632 107.702C93.0802 108.671 90.7032 110.173 88.2842 111.702C87.7904 112.014 87.2948 112.327 86.7954 112.637C86.4435 112.856 85.9811 112.747 85.7627 112.396C85.5442 112.044 85.6524 111.581 86.0044 111.363C86.4801 111.068 86.9596 110.764 87.4436 110.458C89.8631 108.928 92.3952 107.326 95.1365 106.298C98.4249 105.065 102.584 104.425 106.077 105.271L106.085 105.273L106.085 105.273C111.092 106.552 114.332 110.795 117.022 114.78C117.253 115.124 117.163 115.59 116.819 115.822C116.476 116.053 116.01 115.963 115.778 115.62C113.069 111.606 110.11 107.851 105.719 106.728Z" fill="#FFFFFF"></path>
<path fill-rule="evenodd" clip-rule="evenodd" d="M30.8785 104.98C33.5808 100.981 38.29 99.6473 42.9165 99.7501C47.5338 99.8527 52.3552 101.395 54.846 105.619C55.0564 105.976 54.9377 106.435 54.5809 106.646C54.2242 106.856 53.7643 106.738 53.5539 106.381C51.4447 102.804 47.2659 101.347 42.8832 101.25C38.5097 101.153 34.4191 102.419 32.1214 105.82C31.8895 106.163 31.4233 106.253 31.0801 106.021C30.7368 105.789 30.6466 105.323 30.8785 104.98Z" fill="#FFFFFF"></path>
<path fill-rule="evenodd" clip-rule="evenodd" d="M30.7737 108.739C26.7743 108.056 23.8525 108.165 20.3426 109.967L20.3354 109.971L20.3354 109.971C17.0233 111.627 14.0026 113.965 11.5681 116.789C11.2976 117.103 10.824 117.138 10.5103 116.868C10.1966 116.597 10.1615 116.124 10.432 115.81C12.9966 112.835 16.1746 110.375 19.661 108.631C23.5468 106.636 26.8223 106.544 31.0174 107.259C33.1081 107.566 35.4387 108.131 37.4569 109.127C39.4759 110.124 41.2543 111.588 42.0976 113.724C42.2497 114.11 42.0607 114.545 41.6754 114.697C41.2901 114.849 40.8545 114.66 40.7024 114.275C40.0457 112.611 38.6241 111.376 36.7931 110.472C34.964 109.57 32.7983 109.036 30.7913 108.742L30.7825 108.741L30.7737 108.739Z" fill="#FFFFFF"></path>
<path fill-rule="evenodd" clip-rule="evenodd" d="M22.1141 27.2569C22.4693 27.0438 22.93 27.159 23.1431 27.5141C24.8805 30.4097 27.2947 32.8244 30.0955 34.5628C30.4474 34.7812 30.5557 35.2436 30.3372 35.5955C30.1188 35.9475 29.6564 36.0557 29.3045 35.8372C26.3052 33.9757 23.7195 31.3903 21.8569 28.2859C21.6438 27.9307 21.7589 27.47 22.1141 27.2569Z" fill="#FFFFFF"></path>
<path fill-rule="evenodd" clip-rule="evenodd" d="M27.9623 29.5038C28.2363 29.8144 28.2067 30.2883 27.8961 30.5624C27.0455 31.3129 26.22 32.0384 25.3951 32.7633L25.395 32.7634C24.5699 33.4885 23.7455 34.213 22.8961 34.9624C22.5855 35.2364 22.1116 35.2068 21.8375 34.8962C21.5635 34.5856 21.5931 34.1117 21.9037 33.8376C22.7542 33.0871 23.5797 32.3617 24.4045 31.6369L24.4048 31.6366C25.2299 30.9116 26.0543 30.1871 26.9037 29.4376C27.2143 29.1636 27.6882 29.1932 27.9623 29.5038Z" fill="#FFFFFF"></path>
<path fill-rule="evenodd" clip-rule="evenodd" d="M90.3856 36.2312C90.6444 36.5547 90.5919 37.0266 90.2685 37.2854C89.9511 37.5393 89.724 37.9708 89.656 38.4854C89.5893 38.9907 89.6873 39.4994 89.9207 39.878C90.5432 40.7173 91.6073 41.082 92.5794 40.7829L92.6051 40.775L92.6313 40.7689C93.6769 40.5277 94.593 39.7064 95.0077 38.7113C95.167 38.3289 95.6061 38.1481 95.9884 38.3074C96.3708 38.4667 96.5516 38.9058 96.3923 39.2882C95.8102 40.6852 94.5373 41.8587 92.9946 42.2244C91.3816 42.7085 89.6678 42.0806 88.6934 40.7409L88.6797 40.722L88.6672 40.7024C88.2093 39.9828 88.0618 39.1002 88.1689 38.289C88.276 37.4787 88.6489 36.6601 89.3314 36.1141C89.6549 35.8553 90.1269 35.9078 90.3856 36.2312Z" fill="#FFFFFF"></path>
</svg>