<svg xmlns:xlink="http://www.w3.org/1999/xlink" width="128" height="128" viewBox="0 0 128 128" fill="none" xmlns="http://www.w3.org/2000/svg">
<path fill-rule="evenodd" clip-rule="evenodd" d="M59.1901 77.7C58.4901 77.7 57.5901 77.7 56.8901 77.6C53.7901 77.3 50.6901 76.4 47.7901 75C46.0901 74.2 44.5901 73.1 43.3901 72.2C36.9901 67.4 32.4901 59.8 31.0901 51.5C30.5901 48.8 30.3901 46.5 30.3901 44.4C30.3901 26 43.4901 11 59.5901 11C73.8901 11 85.8901 22.6 88.1901 38.6C88.1901 38.8 88.1901 39 88.0901 39.2C87.9901 39.4 87.7901 39.5 87.5901 39.5C87.0901 39.5 86.7901 39.2 86.7901 38.9C84.5901 23.4 72.9901 13 59.3901 13C44.0901 13 31.7901 26.5 31.7901 44.2C31.7901 46.6 31.9901 48.8 32.3901 51.1C33.8901 59.2 38.1901 66.5 44.1901 71C45.5901 72 46.9901 72.9 48.4901 73.7C51.1901 75.1 54.1901 76 57.0901 76.2H57.2901C57.9901 76.3 58.5901 76.3 59.3901 76.3C59.5901 76.3 59.8901 76.3 60.2901 76.2C60.3901 76.2 60.5901 76.2 60.6901 76.2C60.7901 76.2 60.9901 76.2 61.1901 76.2C65.1901 75.8 68.7901 74.6 71.8901 72.7C71.8901 72.5 71.9901 72.5 72.1901 72.5C72.4901 72.5 72.6901 72.7 72.7901 72.9C72.8901 73.1 72.9901 73.3 72.8901 73.4C72.8901 73.6 72.6901 73.8 72.4901 73.9C68.9901 76 65.1901 77.2 61.1901 77.5H61.0901C60.8901 77.5 60.5901 77.5 60.1901 77.6C60.0901 77.6 59.8901 77.6 59.6901 77.6C59.5901 77.7 59.3901 77.7 59.1901 77.7Z" fill="#FFFFFF"></path>
<path d="M56.2903 78.5002L50.2903 86.6002H68.4903L61.7903 78.5002C60.3903 76.6002 57.6903 76.6002 56.2903 78.5002Z" fill="#FFFFFF"></path>
<path fill-rule="evenodd" clip-rule="evenodd" d="M99.2901 91.4998C93.4901 91.4998 87.4901 88.3998 83.0901 83.1998C78.5901 77.7998 76.4901 71.2998 77.4901 65.4998C78.5901 58.9998 81.0901 52.5998 84.4901 48.0998C87.2901 44.2998 92.0901 39.7998 99.1901 39.7998C111.19 39.7998 120.89 51.3998 120.89 65.5998C120.99 79.8998 111.29 91.4998 99.2901 91.4998ZM99.1901 41.0998C94.0901 41.1998 89.3901 43.8998 85.6901 48.8998C82.3901 53.2998 79.9901 59.3998 78.8901 65.6998C77.9901 71.2998 79.8901 77.2998 84.0901 82.2998C88.3901 87.0998 93.9901 89.9998 99.1901 89.9998C110.39 89.9998 119.59 78.9998 119.59 65.4998C119.59 51.9998 110.39 41.0998 99.1901 41.0998Z" fill="#FFFFFF"></path>
<path d="M96.8901 91.3L92.3901 97.6H105.89L100.89 91.3C99.9901 89.9 97.9901 89.9 96.8901 91.3Z" fill="#FFFFFF"></path>
<path fill-rule="evenodd" clip-rule="evenodd" d="M23.9902 87.6999C23.2902 87.6999 22.5902 87.6999 21.9902 87.5999H21.8902L20.8902 87.3999C20.8902 87.3999 20.6902 87.2999 20.5902 87.2999C20.3902 87.1999 20.1902 87.1999 20.0902 87.0999L19.6902 86.9999L19.4902 86.7999H19.2902C10.8902 83.9999 6.29022 74.1999 8.59022 64.0999C10.7902 54.6999 18.1902 47.8999 26.1902 47.8999C26.9902 47.8999 27.6902 47.9999 28.4902 48.0999C28.6902 48.0999 28.7902 48.2999 28.8902 48.3999C28.9902 48.5999 28.9902 48.7999 28.9902 48.9999C28.9902 49.2999 28.5902 49.5999 28.1902 49.5999C27.4902 49.4999 26.7902 49.3999 26.0902 49.3999C18.6902 49.3999 11.8902 55.6999 9.89022 64.4999C7.79022 73.9999 11.8902 82.9999 19.5902 85.4999C19.7902 85.5999 20.0902 85.6999 20.4902 85.6999C20.5902 85.6999 20.6902 85.7999 20.7902 85.7999C20.8902 85.7999 20.8902 85.7999 20.9902 85.8999H21.0902L22.1902 86.0999C22.7902 86.1999 23.3902 86.1999 23.9902 86.1999C29.8902 86.1999 35.6902 82.0999 38.6902 75.6999C38.7902 75.4999 39.0902 75.2999 39.3902 75.2999C39.4902 75.2999 39.5902 75.2999 39.6902 75.3999C39.8902 75.4999 39.9902 75.5999 40.0902 75.7999C40.1902 75.9999 40.1902 76.1999 40.0902 76.2999C36.7902 83.1999 30.4902 87.6999 23.9902 87.6999Z" fill="#FFFFFF"></path>
<path d="M18.9901 86.4002L14.5901 90.3002L24.5901 92.5002L21.9901 86.9002C21.5901 85.9002 19.9901 85.6002 18.9901 86.4002Z" fill="#FFFFFF"></path>
<path d="M120.29 65.6002C120.29 79.5002 110.89 90.7002 99.2901 90.7002C92.5901 90.7002 86.6901 87.0002 82.8901 81.2002C85.8901 83.1002 89.2901 84.3002 92.8901 84.3002C104.59 84.3002 113.89 73.0002 113.89 59.0002C113.89 53.0002 112.09 47.6002 109.29 43.2002C115.79 47.7002 120.29 56.0002 120.29 65.6002Z" fill="#FFFFFF"></path>
<path d="M71.3902 32.4C73.9902 32.4 76.0902 30.3 76.0902 27.7C76.0902 25.1 73.9902 23 71.3902 23C68.7902 23 66.6902 25.1 66.6902 27.7C66.6902 30.2 68.7902 32.4 71.3902 32.4Z" fill="#FFFFFF"></path>
<path d="M38.8902 76.1999C35.4902 83.5999 28.5902 88.0999 21.5902 87.0999C21.1902 86.9999 20.7902 86.8999 20.5902 86.8999C20.0902 86.7999 19.6902 86.6999 19.2902 86.4999C15.8902 85.2999 12.9902 82.8999 11.1902 79.6999C13.7902 81.9999 16.9902 83.2999 20.2902 83.5999C20.6902 83.5999 21.1902 83.6999 21.5902 83.5999C21.9902 83.5999 22.2902 83.4999 22.6902 83.3999C28.3902 82.5999 32.9902 78.2999 35.2902 72.3999C36.3902 73.7999 37.5902 75.0999 38.8902 76.1999Z" fill="#FFFFFF"></path>
<path fill-rule="evenodd" clip-rule="evenodd" d="M60.1318 85.4326C60.5005 85.6212 60.6465 86.0731 60.4578 86.4419C58.3362 90.5887 57.6557 95.4217 58.4287 100.069C58.4804 100.345 58.5369 100.624 58.5941 100.907C58.8531 102.187 59.1267 103.539 59.0387 104.947C58.9278 106.721 58.0307 108.652 56.1687 109.397C55.7841 109.55 55.3476 109.363 55.1938 108.979C55.04 108.594 55.227 108.158 55.6116 108.004C56.7496 107.549 57.4525 106.28 57.5416 104.853C57.6161 103.661 57.3919 102.545 57.1375 101.279C57.0765 100.975 57.0138 100.663 56.953 100.338L56.9516 100.331L56.9504 100.324C56.1254 95.3736 56.8452 90.2096 59.1225 85.7586C59.3111 85.3899 59.763 85.2439 60.1318 85.4326Z" fill="#FFFFFF"></path>
<path fill-rule="evenodd" clip-rule="evenodd" d="M100.054 96.298C100.441 96.4434 100.638 96.8757 100.492 97.2635C99.6528 99.5028 99.6398 101.965 99.838 104.542C100.037 107.024 100.249 109.728 99.7257 112.347L99.7229 112.361L99.7195 112.375C99.0878 115.007 97.4759 117.682 94.7536 118.702C94.3658 118.848 93.9334 118.651 93.788 118.264C93.6426 117.876 93.8391 117.443 94.2269 117.298C96.3006 116.52 97.6873 114.401 98.2576 112.039C98.7302 109.663 98.5436 107.172 98.3426 104.66L98.3425 104.658H98.3425C98.1407 102.035 98.1278 99.2973 99.088 96.7369C99.2334 96.349 99.6658 96.1525 100.054 96.298Z" fill="#FFFFFF"></path>
<path fill-rule="evenodd" clip-rule="evenodd" d="M19.0625 90.4175C19.3843 90.6783 19.4336 91.1506 19.1728 91.4724C16.2847 95.0343 14.7402 99.5662 14.7402 104.1C14.7402 104.291 14.7441 104.492 14.7481 104.699C14.7653 105.586 14.7851 106.603 14.5138 107.597C14.1804 108.82 13.3391 110.163 11.8244 110.438C11.4168 110.512 11.0264 110.242 10.9523 109.834C10.8782 109.427 11.1485 109.036 11.556 108.962C12.2413 108.838 12.8 108.18 13.0666 107.203C13.2758 106.436 13.263 105.69 13.2483 104.825C13.2443 104.593 13.2402 104.352 13.2402 104.1C13.2402 99.2339 14.8957 94.3657 18.0076 90.5277C18.2685 90.2059 18.7408 90.1566 19.0625 90.4175Z" fill="#FFFFFF"></path>
<path fill-rule="evenodd" clip-rule="evenodd" d="M20.5626 28.3183C20.663 27.9164 21.0702 27.6721 21.4721 27.7726C21.5072 27.7813 21.5427 27.7902 21.5786 27.7991C22.1355 27.9379 22.7881 28.1004 23.3755 28.3674C24.0172 28.6591 24.6455 29.1021 25.0486 29.841C25.8716 31.3499 25.1508 33.1164 24.0884 34.0607C23.1349 34.9083 21.9002 35.3531 20.8876 35.7179C20.8057 35.7474 20.7252 35.7764 20.6465 35.805C20.2572 35.9466 19.8269 35.7458 19.6853 35.3565C19.5438 34.9672 19.7446 34.5369 20.1339 34.3953C20.1952 34.373 20.2563 34.3509 20.317 34.3289C21.3922 33.9391 22.3637 33.5869 23.0919 32.9396C23.8296 32.2839 24.1087 31.2504 23.7317 30.5593C23.5348 30.1982 23.2131 29.9413 22.7548 29.733C22.2964 29.5246 21.767 29.3923 21.1719 29.2437C21.1508 29.2384 21.1296 29.2331 21.1083 29.2278C20.7064 29.1273 20.4621 28.7201 20.5626 28.3183Z" fill="#FFFFFF"></path>
<path fill-rule="evenodd" clip-rule="evenodd" d="M111.771 14.6252C112.033 14.9458 111.986 15.4183 111.665 15.6806C110.679 16.4873 109.961 17.5594 109.333 18.7908C108.943 19.5558 108.615 20.3223 108.276 21.1115C108.052 21.6338 107.824 22.1661 107.571 22.7144C106.947 24.0664 106.074 25.4815 104.945 26.5559C103.811 27.6354 102.375 28.4087 100.664 28.3497L100.649 28.349C99.8614 28.3052 99.0574 28.0863 98.3546 27.8949C98.1679 27.8441 97.9885 27.7953 97.8183 27.7521C96.9516 27.5324 96.2527 27.4323 95.6147 27.6159C94.5249 27.9872 93.7361 29.311 93.6402 30.7238C93.6461 32.1518 94.1844 33.6163 94.7865 35.1216C94.9403 35.5062 94.7533 35.9426 94.3687 36.0965C93.9841 36.2503 93.5476 36.0633 93.3938 35.6787C92.7992 34.1922 92.1401 32.4646 92.1401 30.7001C92.1401 30.6845 92.1406 30.6689 92.1416 30.6533C92.2524 28.8802 93.2552 26.8212 95.153 26.1886C95.1614 26.1858 95.1699 26.1831 95.1785 26.1806C96.237 25.8693 97.2845 26.0693 98.1869 26.2981C98.4153 26.356 98.6331 26.415 98.8433 26.4719C99.5176 26.6545 100.113 26.8158 100.724 26.8508C101.91 26.8893 102.972 26.3628 103.911 25.4694C104.857 24.5688 105.633 23.3339 106.209 22.0858C106.424 21.6201 106.64 21.118 106.861 20.6041C107.22 19.7682 107.593 18.9012 107.997 18.1095C108.669 16.7909 109.501 15.5129 110.715 14.5197C111.036 14.2574 111.508 14.3046 111.771 14.6252Z" fill="#FFFFFF"></path>
<path fill-rule="evenodd" clip-rule="evenodd" d="M53.5442 17.6332C53.7469 17.9944 53.6183 18.4516 53.2571 18.6542C45.2607 23.14 39.4976 31.5388 38.1318 40.6118C38.0701 41.0214 37.6881 41.3034 37.2785 41.2418C36.8689 41.1801 36.5868 40.7981 36.6485 40.3885C38.0826 30.8615 44.1195 22.0603 52.5232 17.346C52.8844 17.1434 53.3416 17.2719 53.5442 17.6332Z" fill="#FFFFFF"></path>
</svg>