<svg xmlns:xlink="http://www.w3.org/1999/xlink" xmlns="http://www.w3.org/2000/svg" width="418" height="370" viewBox="0 0 418 370" fill="none" class="mdl-js">
<path fill-rule="evenodd" clip-rule="evenodd" d="M82.0204 171.604C80.6813 166.363 83.7636 161.003 88.9654 159.518C170.918 136.126 221.195 123.275 304.597 104.426C309.874 103.233 315.149 106.458 316.488 111.699L317.805 116.853L315.296 117.494L314.664 115.022C313.307 109.712 307.917 106.486 302.594 107.787C220.151 127.927 170.459 140.598 92.3272 161.501C87.0366 162.916 83.8571 168.33 85.2128 173.636L100.274 232.585L97.7645 233.226L82.0204 171.604Z" fill="black"/>
<path fill-rule="evenodd" clip-rule="evenodd" d="M125.738 316.6C123.664 317.13 121.554 315.879 121.024 313.805L108.731 265.689L106.222 266.33L118.515 314.446C119.399 317.906 122.92 319.993 126.379 319.11V319.11L125.738 316.6V316.6Z" fill="black"/>
<path fill-rule="evenodd" clip-rule="evenodd" d="M217.669 306.49C217.773 306.916 217.511 307.346 217.085 307.449L207.286 309.833C206.86 309.937 206.43 309.675 206.326 309.249C206.223 308.822 206.484 308.393 206.911 308.289L216.709 305.905C217.136 305.802 217.566 306.063 217.669 306.49Z" fill="black"/>
<path fill-rule="evenodd" clip-rule="evenodd" d="M314.205 283.293C314.308 283.72 314.045 284.149 313.619 284.252L232.712 303.742C232.285 303.845 231.856 303.583 231.753 303.156C231.65 302.729 231.913 302.3 232.339 302.198L313.246 282.707C313.673 282.604 314.102 282.867 314.205 283.293Z" fill="black"/>
<path fill-rule="evenodd" clip-rule="evenodd" d="M111.457 256.953C112.153 256.787 112.851 257.217 113.017 257.913L126.689 315.312C128.094 321.209 134.005 324.858 139.906 323.472L200.974 309.125C201.671 308.961 202.368 309.393 202.531 310.089C202.695 310.785 202.263 311.482 201.567 311.646L137.985 326.584C132.084 327.97 126.173 324.321 124.768 318.424L110.497 258.513C110.331 257.817 110.761 257.119 111.457 256.953Z" fill="black"/>
<path fill-rule="evenodd" clip-rule="evenodd" d="M92.3982 180.88C90.9583 174.845 94.8162 168.809 100.891 167.543C183.142 150.4 233.34 138.409 313.775 116.761C319.767 115.148 325.934 118.792 327.374 124.828L347.295 208.34C347.461 209.036 347.033 209.734 346.338 209.9C345.644 210.065 344.946 209.636 344.78 208.94L325.451 127.91C324.015 121.888 317.871 118.245 311.888 119.834C232.808 140.843 183.934 152.511 103.964 169.435C97.9073 170.717 94.0689 176.742 95.5056 182.764L107.596 233.449C107.762 234.145 107.334 234.843 106.639 235.009C105.945 235.174 105.247 234.745 105.081 234.049L92.3982 180.88Z" fill="black"/>
<path fill-rule="evenodd" clip-rule="evenodd" d="M22.1056 127.494C23.9952 126.651 25.9978 125.982 28.1001 125.531C30.2025 125.08 32.3035 124.869 34.3725 124.863V124.863C34.98 124.861 35.506 125.285 35.6334 125.879L36.128 128.185C36.3144 129.054 37.0532 129.688 37.9346 129.802C39.0186 129.944 40.0875 130.152 41.1385 130.427C42.0311 130.66 42.9886 130.318 43.4745 129.534L44.6234 127.679C44.9434 127.162 45.5906 126.953 46.1522 127.186V127.186C48.1403 128.007 50.0105 129.063 51.773 130.252C53.5355 131.441 55.225 132.788 56.7592 134.343V134.343C57.2001 134.79 57.2778 135.481 56.9472 136.015L55.7468 137.953C55.2892 138.691 55.3669 139.637 55.8947 140.327C56.6041 141.255 57.2582 142.231 57.8543 143.254C58.3096 144.035 59.2043 144.465 60.0881 144.276L62.1417 143.835C62.7553 143.704 63.3763 144.025 63.6232 144.602V144.602C64.4669 146.574 65.145 148.66 65.6139 150.846C66.0829 153.032 66.32 155.213 66.3593 157.358V157.358C66.3708 157.985 65.9362 158.533 65.3226 158.664L63.269 159.105C62.3852 159.295 61.7458 160.054 61.6509 160.953C61.5266 162.13 61.3306 163.289 61.0641 164.426C60.8658 165.272 61.1826 166.166 61.9029 166.652L63.7926 167.927C64.313 168.279 64.5254 168.94 64.3065 169.529V169.529C63.5451 171.576 62.5566 173.498 61.4369 175.305C60.3173 177.113 59.0444 178.842 57.5684 180.407V180.407C57.1514 180.849 56.4755 180.924 55.9718 180.584L54.1631 179.364C53.3983 178.848 52.3848 178.928 51.6663 179.507C50.8204 180.189 49.931 180.817 49.0003 181.391C48.2436 181.857 47.8298 182.738 48.0162 183.607L48.5108 185.913C48.6382 186.507 48.3323 187.109 47.7774 187.357V187.357C45.8879 188.2 43.8853 188.869 41.7829 189.32C39.6805 189.771 37.5796 189.982 35.5106 189.988V189.988C34.903 189.99 34.3771 189.566 34.2496 188.972L33.7551 186.666C33.5686 185.797 32.8298 185.163 31.9485 185.048C30.8644 184.907 29.7955 184.699 28.7446 184.424C27.8519 184.191 26.8944 184.533 26.4086 185.317L25.2596 187.172C24.9396 187.689 24.2924 187.898 23.7308 187.665V187.665C21.7427 186.843 19.8725 185.788 18.1101 184.599C16.3476 183.409 14.658 182.063 13.1239 180.508V180.508C12.683 180.061 12.6052 179.37 12.9358 178.836L14.1363 176.898C14.5938 176.16 14.5161 175.214 13.9883 174.524C13.2789 173.596 12.6249 172.62 12.0287 171.597C11.5735 170.816 10.6787 170.386 9.79493 170.575L7.74138 171.016C7.1277 171.147 6.50674 170.826 6.25984 170.249V170.249C5.41613 168.277 4.73805 166.191 4.26912 164.005C3.80018 161.819 3.563 159.638 3.52376 157.493V157.493C3.51227 156.866 3.9468 156.318 4.56048 156.186L6.61402 155.746C7.49782 155.556 8.13723 154.797 8.23213 153.898C8.35641 152.72 8.55246 151.562 8.81896 150.425C9.01727 149.579 8.70042 148.685 7.98013 148.199L6.09048 146.923C5.57007 146.572 5.35768 145.91 5.57654 145.322V145.322C6.33798 143.275 7.32647 141.353 8.44611 139.546C9.56573 137.738 10.8386 136.009 12.3147 134.444V134.444C12.7317 134.002 13.4075 133.927 13.9113 134.267L15.7199 135.487C16.4847 136.003 17.4983 135.922 18.2168 135.344C19.0627 134.662 19.952 134.034 20.8827 133.46C21.6394 132.994 22.0533 132.113 21.8668 131.244L21.3723 128.938C21.2448 128.344 21.5507 127.742 22.1056 127.494V127.494ZM25.6798 128.937C24.7579 129.246 24.2507 130.214 24.4546 131.164L24.8941 133.213C25.0179 133.79 24.7332 134.378 24.2032 134.639V134.639C21.9024 135.771 19.8457 137.235 18.0571 138.997V138.997C17.6368 139.411 16.983 139.471 16.494 139.141L14.9186 138.078C14.0799 137.512 12.9449 137.658 12.3335 138.464C11.7185 139.275 11.1425 140.123 10.5997 140.999C10.0307 141.918 9.50376 142.858 9.03062 143.823C8.61057 144.68 8.92057 145.701 9.71142 146.235L11.3809 147.362C11.8869 147.703 12.1037 148.339 11.9114 148.919V148.919C11.1064 151.344 10.6715 153.903 10.6268 156.557V156.557C10.6166 157.166 10.1877 157.688 9.59206 157.816L7.77876 158.205C6.81856 158.411 6.14286 159.284 6.24667 160.261C6.3601 161.328 6.5295 162.399 6.75934 163.471C6.98918 164.542 7.27407 165.589 7.60822 166.608C7.91404 167.541 8.88859 168.061 9.84879 167.855L11.6621 167.466C12.2577 167.338 12.8628 167.638 13.1219 168.19V168.19C14.2514 170.592 15.6974 172.747 17.4263 174.629V174.629C17.8393 175.079 17.9026 175.748 17.5811 176.267L16.5206 177.979C16.0182 178.79 16.1543 179.849 16.8888 180.458C17.716 181.144 18.5824 181.786 19.4781 182.39C20.3325 182.967 21.2056 183.504 22.0991 183.991C22.9873 184.476 24.0822 184.143 24.615 183.283L25.6158 181.667C25.9265 181.165 26.5475 180.952 27.1006 181.158V181.158C29.4544 182.031 31.9306 182.523 34.4933 182.611V182.611C35.0836 182.632 35.5844 183.051 35.7083 183.629L36.1477 185.677C36.3517 186.628 37.211 187.302 38.1787 187.206C39.1931 187.106 40.2106 186.949 41.2275 186.73C42.2443 186.512 43.2368 186.238 44.2032 185.914C45.1252 185.605 45.6323 184.637 45.4284 183.686L44.989 181.638C44.8651 181.06 45.1499 180.473 45.6798 180.212V180.212C47.9807 179.08 50.0373 177.616 51.8259 175.854V175.854C52.2462 175.44 52.9 175.38 53.389 175.71L54.9645 176.773C55.8031 177.339 56.9382 177.193 57.5496 176.387C58.1646 175.576 58.7406 174.728 59.2833 173.852C59.8524 172.933 60.3793 171.992 60.8524 171.028C61.2725 170.171 60.9625 169.15 60.1716 168.616L58.5021 167.489C57.9962 167.148 57.7793 166.511 57.9716 165.932V165.932C58.7766 163.507 59.2116 160.948 59.2563 158.294V158.294C59.2665 157.685 59.6954 157.163 60.291 157.035L62.1043 156.646C63.0645 156.44 63.7402 155.567 63.6364 154.59C63.5229 153.523 63.3535 152.452 63.1237 151.38C62.8939 150.309 62.609 149.262 62.2748 148.243C61.969 147.309 60.9945 146.79 60.0343 146.996L58.221 147.385C57.6254 147.513 57.0203 147.213 56.7611 146.661V146.661C55.6316 144.259 54.1856 142.104 52.4567 140.222V140.222C52.0438 139.772 51.9805 139.103 52.3019 138.584L53.3625 136.872C53.8649 136.061 53.7287 135.002 52.9943 134.393C52.167 133.707 51.3007 133.065 50.4049 132.461C49.5505 131.884 48.6774 131.347 47.7839 130.86C46.8957 130.375 45.8008 130.708 45.2681 131.568L44.2672 133.184C43.9566 133.685 43.3355 133.899 42.7824 133.693V133.693C40.4286 132.82 37.9524 132.328 35.3897 132.24V132.24C34.7994 132.219 34.2986 131.8 34.1748 131.222L33.7353 129.174C33.5314 128.223 32.6721 127.549 31.7044 127.645C30.69 127.745 29.6724 127.902 28.6556 128.121C27.6388 128.339 26.6463 128.613 25.6798 128.937ZM31.9374 143.42C24.5031 145.015 19.8148 152.584 21.473 160.314C23.1312 168.045 30.5114 173.025 37.9456 171.431C45.3799 169.836 50.0683 162.267 48.4101 154.536C46.7519 146.806 39.3717 141.826 31.9374 143.42ZM18.9828 160.849C17.0178 151.688 22.5724 142.721 31.382 140.831C40.1915 138.941 48.9353 144.842 50.9003 154.002C52.8652 163.163 47.3106 172.13 38.5011 174.02C29.6915 175.91 20.9477 170.009 18.9828 160.849Z" fill="black"/>
<path fill-rule="evenodd" clip-rule="evenodd" d="M161.865 187.934C164.016 186.935 166.3 186.125 168.701 185.552C171.102 184.979 173.506 184.672 175.876 184.592C176.506 184.571 177.063 184.995 177.209 185.608L178.216 189.831C180.729 189.922 183.183 190.313 185.553 190.994L187.827 187.295C188.156 186.759 188.819 186.529 189.41 186.745C191.7 187.584 193.859 188.685 195.9 189.939L195.206 191.067L195.9 189.939C197.94 191.194 199.897 192.624 201.679 194.288C202.139 194.718 202.233 195.413 201.903 195.95L199.629 199.648C201.307 201.455 202.763 203.468 203.978 205.67L208.202 204.662C208.814 204.516 209.445 204.821 209.71 205.393C210.709 207.544 211.52 209.828 212.093 212.229C212.665 214.63 212.973 217.034 213.052 219.404C213.074 220.033 212.649 220.591 212.036 220.737L207.813 221.744C207.723 224.257 207.332 226.711 206.65 229.08L210.349 231.354C210.885 231.684 211.115 232.346 210.899 232.938C210.06 235.227 208.959 237.387 207.705 239.428C206.451 241.468 205.02 243.425 203.356 245.207C202.926 245.667 202.231 245.761 201.695 245.431L197.996 243.157C196.189 244.835 194.176 246.291 191.975 247.506L192.982 251.73C193.128 252.342 192.823 252.973 192.252 253.238C190.1 254.237 187.817 255.048 185.416 255.62C183.014 256.193 180.611 256.5 178.24 256.58C177.611 256.602 177.054 256.177 176.907 255.564L175.9 251.341C173.387 251.25 170.933 250.86 168.564 250.178L166.29 253.877C165.96 254.413 165.298 254.643 164.706 254.427C162.417 253.588 160.257 252.487 158.217 251.233C156.176 249.978 154.219 248.548 152.437 246.884C151.977 246.454 151.883 245.759 152.213 245.223L154.487 241.524C152.809 239.717 151.353 237.704 150.138 235.502L145.915 236.51C145.302 236.656 144.671 236.351 144.406 235.78C143.407 233.628 142.597 231.345 142.024 228.943C141.451 226.542 141.144 224.139 141.064 221.768C141.043 221.139 141.468 220.581 142.08 220.435L146.303 219.428C146.394 216.915 146.785 214.461 147.466 212.092L143.767 209.818C143.231 209.488 143.001 208.826 143.218 208.234C144.056 205.945 145.157 203.785 146.411 201.745C146.411 201.745 146.411 201.745 146.411 201.745M156.121 198.015L152.422 195.741C151.885 195.411 151.191 195.505 150.761 195.965C149.096 197.747 147.666 199.704 146.411 201.745M156.121 198.015C157.927 196.337 159.94 194.881 162.142 193.666L161.134 189.442C160.988 188.83 161.294 188.199 161.865 187.934M169.315 188.128C167.456 188.571 165.67 189.17 163.965 189.897L164.956 194.048C165.098 194.643 164.814 195.258 164.269 195.535C161.627 196.88 159.273 198.588 157.234 200.618C156.8 201.05 156.127 201.128 155.606 200.808L151.975 198.575C150.75 199.988 149.658 201.521 148.668 203.132L148.668 203.132C147.677 204.742 146.803 206.409 146.094 208.139L149.726 210.372C150.247 210.693 150.481 211.328 150.292 211.91C149.401 214.646 148.94 217.518 148.932 220.482C148.93 221.093 148.51 221.624 147.915 221.766L143.764 222.756C143.884 224.606 144.156 226.47 144.6 228.329C145.043 230.188 145.642 231.974 146.369 233.679L150.52 232.689C151.115 232.547 151.73 232.831 152.007 233.376C153.353 236.017 155.06 238.371 157.09 240.41C157.522 240.844 157.6 241.517 157.28 242.038L155.047 245.67C156.46 246.894 157.993 247.987 159.604 248.977L158.91 250.105L159.604 248.977C161.214 249.967 162.881 250.841 164.612 251.55L166.844 247.918C167.165 247.397 167.801 247.163 168.382 247.353C171.118 248.244 173.99 248.705 176.954 248.713C177.565 248.714 178.096 249.135 178.238 249.73L179.228 253.88C181.078 253.76 182.942 253.488 184.801 253.044C186.66 252.601 188.446 252.002 190.151 251.275L189.161 247.124C189.019 246.529 189.303 245.914 189.848 245.637C192.489 244.292 194.843 242.584 196.882 240.554C197.316 240.122 197.989 240.044 198.51 240.364L202.142 242.597C203.366 241.184 204.459 239.651 205.449 238.041C206.439 236.43 207.314 234.763 208.022 233.033L204.39 230.8C203.869 230.48 203.635 229.844 203.825 229.262C204.716 226.526 205.177 223.655 205.185 220.69C205.186 220.079 205.607 219.548 206.202 219.406L210.352 218.416C210.232 216.566 209.96 214.702 209.516 212.843C209.073 210.984 208.475 209.198 207.747 207.493L203.596 208.483C203.001 208.625 202.387 208.341 202.109 207.796C200.764 205.155 199.056 202.801 197.026 200.762C196.595 200.328 196.516 199.655 196.837 199.134L199.069 195.502C197.656 194.278 196.123 193.186 194.513 192.195C192.902 191.205 191.235 190.331 189.505 189.622L187.272 193.254C186.952 193.775 186.316 194.009 185.734 193.819C182.998 192.928 180.127 192.468 177.163 192.459C176.551 192.458 176.02 192.038 175.878 191.443L174.888 187.292C173.038 187.412 171.174 187.684 169.315 188.128ZM173.34 205.001C164.738 207.053 159.421 215.701 161.473 224.304C163.525 232.906 172.173 238.223 180.776 236.171C189.379 234.119 194.695 225.471 192.643 216.868C190.591 208.266 181.943 202.949 173.34 205.001ZM158.897 224.918C156.505 214.893 162.701 204.816 172.726 202.425C182.751 200.033 192.828 206.228 195.219 216.254C197.611 226.279 191.416 236.356 181.39 238.747C171.365 241.139 161.289 234.944 158.897 224.918Z" fill="black"/>
<path fill-rule="evenodd" clip-rule="evenodd" d="M184.048 264.367C185.092 263.882 186.2 263.489 187.365 263.211C188.531 262.933 189.697 262.784 190.847 262.745C191.225 262.732 191.559 262.987 191.647 263.355L192.104 265.27C193.242 265.319 194.356 265.497 195.434 265.797L196.465 264.12C196.663 263.798 197.061 263.66 197.415 263.79C198.528 264.198 199.576 264.732 200.565 265.34C201.553 265.948 202.503 266.642 203.369 267.451C203.645 267.709 203.702 268.125 203.504 268.447L202.473 270.124C203.228 270.951 203.888 271.865 204.447 272.858L206.362 272.401C206.729 272.314 207.108 272.497 207.267 272.84C207.751 273.883 208.145 274.992 208.423 276.157C208.701 277.323 208.85 278.489 208.889 279.639C208.902 280.017 208.647 280.351 208.279 280.439L206.364 280.895C206.314 282.034 206.137 283.148 205.836 284.226L207.514 285.257C207.836 285.455 207.974 285.852 207.844 286.207C207.436 287.32 206.901 288.368 206.294 289.357C205.686 290.345 204.992 291.295 204.183 292.161C203.925 292.437 203.508 292.493 203.187 292.295L201.509 291.264C200.683 292.019 199.769 292.68 198.776 293.239L199.232 295.154C199.32 295.521 199.137 295.9 198.794 296.059C197.75 296.543 196.642 296.937 195.477 297.215C194.311 297.493 193.145 297.642 191.995 297.681C191.617 297.693 191.283 297.438 191.195 297.071L190.738 295.156C189.6 295.106 188.486 294.929 187.408 294.628L186.377 296.305C186.179 296.627 185.781 296.765 185.427 296.635C184.314 296.228 183.266 295.693 182.277 295.086C181.289 294.478 180.339 293.784 179.473 292.975C179.197 292.717 179.14 292.3 179.338 291.978L180.369 290.301C179.614 289.475 178.954 288.561 178.395 287.567L176.48 288.024C176.113 288.112 175.734 287.929 175.575 287.586C175.091 286.542 174.697 285.434 174.419 284.269C174.141 283.103 173.992 281.937 173.953 280.786C173.94 280.409 174.195 280.075 174.563 279.987L176.478 279.53C176.528 278.391 176.705 277.278 177.006 276.2L175.328 275.168C175.006 274.971 174.868 274.573 174.998 274.218C175.406 273.106 175.941 272.057 176.548 271.069C177.156 270.081 177.85 269.131 178.659 268.265C178.917 267.988 179.334 267.932 179.656 268.13L181.333 269.161C182.159 268.406 183.073 267.745 184.066 267.187L183.61 265.272C183.522 264.904 183.705 264.526 184.048 264.367ZM187.734 264.756C186.893 264.957 186.084 265.224 185.309 265.547L185.754 267.414C185.839 267.771 185.669 268.139 185.342 268.306C184.086 268.946 182.967 269.757 181.998 270.722C181.738 270.981 181.335 271.028 181.022 270.835L179.39 269.832C178.843 270.476 178.351 271.171 177.902 271.901L177.902 271.901C177.453 272.631 177.055 273.384 176.727 274.163L178.359 275.166C178.672 275.359 178.812 275.74 178.698 276.089C178.275 277.389 178.056 278.754 178.052 280.163C178.051 280.53 177.799 280.849 177.442 280.934L175.576 281.379C175.637 282.216 175.764 283.059 175.965 283.9C176.165 284.741 176.432 285.55 176.756 286.325L178.622 285.88C178.979 285.795 179.348 285.965 179.514 286.292C180.154 287.548 180.965 288.666 181.93 289.635C182.189 289.896 182.236 290.299 182.044 290.612L181.04 292.244C181.684 292.791 182.379 293.283 183.109 293.732L182.715 294.373L183.109 293.732C183.84 294.181 184.592 294.579 185.371 294.907L186.375 293.275C186.567 292.962 186.948 292.822 187.297 292.935C188.598 293.359 189.962 293.578 191.371 293.582C191.738 293.583 192.057 293.835 192.142 294.192L192.587 296.058C193.425 295.997 194.267 295.87 195.108 295.669C195.949 295.469 196.758 295.201 197.533 294.878L197.088 293.012C197.003 292.655 197.173 292.286 197.5 292.12C198.756 291.48 199.875 290.669 200.844 289.704C201.104 289.445 201.507 289.398 201.82 289.59L203.452 290.593C203.999 289.95 204.491 289.254 204.94 288.524C205.389 287.794 205.787 287.041 206.115 286.262L204.483 285.259C204.17 285.067 204.03 284.685 204.144 284.336C204.567 283.036 204.786 281.672 204.79 280.263C204.791 279.896 205.043 279.577 205.4 279.492L207.266 279.047C207.205 278.209 207.078 277.366 206.877 276.526C206.677 275.685 206.41 274.876 206.086 274.101L204.22 274.546C203.863 274.631 203.494 274.461 203.328 274.134C202.688 272.878 201.877 271.759 200.912 270.79C200.653 270.53 200.606 270.126 200.798 269.814L201.802 268.182C201.158 267.635 200.463 267.142 199.733 266.694C199.002 266.245 198.25 265.847 197.471 265.519L196.467 267.151C196.275 267.464 195.894 267.604 195.545 267.49C194.245 267.067 192.88 266.848 191.471 266.844C191.104 266.843 190.785 266.591 190.7 266.234L190.255 264.368C189.417 264.429 188.575 264.556 187.734 264.756ZM189.67 272.871C185.617 273.838 183.113 277.912 184.079 281.964C185.046 286.017 189.12 288.521 193.172 287.555C197.225 286.588 199.729 282.514 198.763 278.461C197.796 274.409 193.722 271.904 189.67 272.871ZM182.534 282.333C181.363 277.427 184.395 272.496 189.301 271.325C194.207 270.155 199.138 273.187 200.308 278.093C201.479 282.999 198.447 287.93 193.541 289.1C188.635 290.271 183.704 287.239 182.534 282.333Z" fill="black" fill-opacity="0.7"/>
<path fill-rule="evenodd" clip-rule="evenodd" d="M390.571 210.849C368.095 197.031 338.591 206.373 328.164 230.609L316.62 257.442C308.974 275.213 317.406 291.612 333.887 301.744C350.334 311.856 369.825 312.689 382.245 297.907L401.037 275.543C418.039 255.308 413.086 224.691 390.571 210.849ZM325.731 229.562C336.797 203.842 368.107 193.929 391.958 208.593C415.851 223.282 421.107 255.773 403.064 277.247L384.273 299.611C371.008 315.397 350.065 314.799 332.5 304C314.899 293.179 306.022 275.374 314.187 256.395L325.731 229.562Z" fill="black"/>
<path d="M322.485 243.098L327.086 231.617C337.193 206.399 367.574 196.358 390.718 210.587C413.909 224.844 418.627 256.574 400.587 276.961L392.391 286.224C378.972 301.389 356.596 304.716 339.345 294.111C322.054 283.48 314.934 261.939 322.485 243.098Z" fill="black"/>
<path fill-rule="evenodd" clip-rule="evenodd" d="M178.813 227.811C182.939 226.827 185.486 222.684 184.501 218.558C183.517 214.432 179.375 211.885 175.249 212.87C171.123 213.854 168.576 217.996 169.56 222.122C170.544 226.248 174.687 228.795 178.813 227.811ZM179.059 228.841C183.754 227.721 186.652 223.007 185.532 218.312C184.412 213.617 179.698 210.719 175.003 211.839C170.308 212.959 167.41 217.673 168.53 222.368C169.65 227.063 174.364 229.961 179.059 228.841Z" fill="black"/>
<path fill-rule="evenodd" clip-rule="evenodd" d="M179.671 231.417C185.789 229.958 189.565 223.815 188.106 217.698C186.647 211.58 180.504 207.804 174.386 209.263C168.269 210.722 164.492 216.865 165.952 222.982C167.411 229.1 173.554 232.876 179.671 231.417ZM179.917 232.447C186.604 230.852 190.731 224.139 189.136 217.452C187.541 210.765 180.827 206.637 174.141 208.233C167.454 209.828 163.326 216.541 164.921 223.228C166.517 229.915 173.23 234.043 179.917 232.447Z" fill="black"/>
<path fill-rule="evenodd" clip-rule="evenodd" d="M164.443 166.439C164.728 166.371 165.014 166.547 165.082 166.831L165.813 169.899L164.783 170.145L164.051 167.077C163.983 166.793 164.159 166.507 164.443 166.439ZM167.71 182.416L166.247 176.281L167.277 176.035L168.741 182.171L167.71 182.416ZM170.638 194.688L169.174 188.552L170.204 188.306L171.668 194.442L170.638 194.688ZM173.565 206.959L172.101 200.824L173.132 200.578L174.595 206.713L173.565 206.959ZM176.492 219.231L175.029 213.095L176.059 212.849L177.523 218.985L176.492 219.231ZM179.419 231.502L177.956 225.366L178.986 225.121L180.45 231.256L179.419 231.502ZM182.347 243.773L180.883 237.638L181.914 237.392L183.377 243.528L182.347 243.773ZM185.274 256.045L183.81 249.909L184.841 249.663L186.305 255.799L185.274 256.045ZM188.201 268.316L186.738 262.18L187.768 261.935L189.232 268.07L188.201 268.316ZM191.129 280.588L189.665 274.452L190.695 274.206L192.159 280.342L191.129 280.588ZM194.056 292.859L192.592 286.723L193.623 286.477L195.086 292.613L194.056 292.859ZM196.251 302.062L195.52 298.995L196.55 298.749L197.282 301.817C197.35 302.101 197.174 302.387 196.89 302.455C196.605 302.523 196.319 302.347 196.251 302.062Z" fill="black"/>
<path fill-rule="evenodd" clip-rule="evenodd" d="M222.438 149.337C222.722 149.269 223.008 149.445 223.076 149.729L223.79 152.724L222.76 152.97L222.045 149.975C221.977 149.691 222.153 149.405 222.438 149.337ZM225.617 164.948L224.188 158.959L225.219 158.713L226.648 164.703L225.617 164.948ZM228.475 176.927L227.046 170.938L228.076 170.692L229.505 176.681L228.475 176.927ZM231.332 188.906L229.903 182.916L230.934 182.671L232.362 188.66L231.332 188.906ZM234.19 200.884L232.761 194.895L233.791 194.649L235.22 200.639L234.19 200.884ZM237.047 212.863L235.618 206.874L236.649 206.628L238.077 212.617L237.047 212.863ZM239.904 224.842L238.476 218.852L239.506 218.607L240.935 224.596L239.904 224.842ZM242.762 236.82L241.333 230.831L242.364 230.585L243.792 236.575L242.762 236.82ZM244.905 245.804L244.191 242.81L245.221 242.564L245.935 245.559C246.003 245.843 245.828 246.129 245.543 246.197C245.259 246.265 244.973 246.089 244.905 245.804Z" fill="black"/>
<path fill-rule="evenodd" clip-rule="evenodd" d="M257.557 143.556C257.841 143.488 258.127 143.663 258.195 143.948L258.919 146.982L257.888 147.228L257.164 144.194C257.097 143.909 257.272 143.624 257.557 143.556ZM260.783 159.364L259.336 153.296L260.366 153.05L261.814 159.118L260.783 159.364ZM263.678 171.5L262.231 165.432L263.261 165.186L264.709 171.254L263.678 171.5ZM266.573 183.636L265.126 177.568L266.156 177.322L267.604 183.39L266.573 183.636ZM269.468 195.772L268.021 189.704L269.051 189.458L270.499 195.526L269.468 195.772ZM272.363 207.908L270.916 201.84L271.946 201.594L273.394 207.662L272.363 207.908ZM275.258 220.044L273.811 213.976L274.841 213.73L276.289 219.799L275.258 220.044ZM278.153 232.18L276.706 226.112L277.736 225.867L279.184 231.935L278.153 232.18ZM281.048 244.316L279.601 238.248L280.631 238.003L282.079 244.071L281.048 244.316ZM283.22 253.419L282.496 250.385L283.526 250.139L284.25 253.173C284.318 253.457 284.142 253.743 283.858 253.811C283.573 253.879 283.288 253.703 283.22 253.419Z" fill="black"/>
<path fill-rule="evenodd" clip-rule="evenodd" d="M295.701 146.018C295.986 145.95 296.271 146.125 296.339 146.41L297.081 149.52L296.051 149.765L295.309 146.656C295.241 146.371 295.417 146.085 295.701 146.018ZM299.018 162.204L297.534 155.985L298.565 155.739L300.048 161.958L299.018 162.204ZM301.985 174.643L300.502 168.423L301.532 168.178L303.016 174.397L301.985 174.643ZM304.952 187.081L303.469 180.862L304.499 180.616L305.983 186.836L304.952 187.081ZM307.92 199.52L306.436 193.301L307.466 193.055L308.95 199.274L307.92 199.52ZM310.887 211.959L309.403 205.739L310.434 205.494L311.917 211.713L310.887 211.959ZM313.854 224.397L312.37 218.178L313.401 217.932L314.884 224.152L313.854 224.397ZM316.079 233.726L315.338 230.617L316.368 230.371L317.11 233.481C317.178 233.765 317.002 234.051 316.717 234.119C316.433 234.187 316.147 234.011 316.079 233.726Z" fill="black"/>
<path fill-rule="evenodd" clip-rule="evenodd" d="M158.238 288.804C158.171 288.52 158.346 288.234 158.631 288.166L161.799 287.41L162.045 288.441L158.877 289.197C158.592 289.265 158.306 289.089 158.238 288.804ZM174.719 285.417L168.382 286.929L168.136 285.899L174.473 284.387L174.719 285.417ZM187.393 282.394L181.056 283.906L180.811 282.875L187.148 281.364L187.393 282.394ZM200.068 279.371L193.731 280.882L193.485 279.852L199.822 278.34L200.068 279.371ZM212.742 276.347L206.405 277.859L206.159 276.829L212.496 275.317L212.742 276.347ZM222.247 274.08L219.079 274.836L218.833 273.805L222.002 273.049C222.286 272.981 222.572 273.157 222.64 273.442C222.708 273.726 222.532 274.012 222.247 274.08Z" fill="black"/>
<path fill-rule="evenodd" clip-rule="evenodd" d="M125.309 232.95C125.241 232.665 125.417 232.379 125.702 232.311L128.745 231.586L128.99 232.616L125.947 233.342C125.663 233.41 125.377 233.234 125.309 232.95ZM141.162 229.712L135.076 231.164L134.83 230.134L140.916 228.682L141.162 229.712ZM153.334 226.809L147.248 228.261L147.002 227.23L153.088 225.778L153.334 226.809ZM165.506 223.905L159.42 225.357L159.174 224.327L165.26 222.875L165.506 223.905ZM177.678 221.002L171.592 222.453L171.346 221.423L177.432 219.971L177.678 221.002ZM189.85 218.098L183.764 219.55L183.518 218.519L189.604 217.068L189.85 218.098ZM202.021 215.195L195.936 216.646L195.69 215.616L201.776 214.164L202.021 215.195ZM214.193 212.291L208.107 213.743L207.862 212.712L213.948 211.261L214.193 212.291ZM226.365 209.387L220.279 210.839L220.033 209.809L226.119 208.357L226.365 209.387ZM238.537 206.484L232.451 207.936L232.205 206.905L238.291 205.453L238.537 206.484ZM250.709 203.58L244.623 205.032L244.377 204.002L250.463 202.55L250.709 203.58ZM262.881 200.677L256.795 202.129L256.549 201.098L262.635 199.646L262.881 200.677ZM275.053 197.773L268.967 199.225L268.721 198.195L274.807 196.743L275.053 197.773ZM287.224 194.87L281.139 196.321L280.893 195.291L286.979 193.839L287.224 194.87ZM299.396 191.966L293.31 193.418L293.065 192.387L299.151 190.936L299.396 191.966ZM311.568 189.062L305.482 190.514L305.236 189.484L311.322 188.032L311.568 189.062ZM320.697 186.885L317.654 187.611L317.408 186.58L320.451 185.854C320.736 185.787 321.022 185.962 321.089 186.247C321.157 186.531 320.982 186.817 320.697 186.885Z" fill="black"/>
<path fill-rule="evenodd" clip-rule="evenodd" d="M159.579 295.564C159.477 295.137 159.741 294.708 160.167 294.607L166.865 293.009C167.292 292.907 167.72 293.17 167.822 293.597C167.924 294.024 167.661 294.453 167.234 294.554L160.536 296.152C160.109 296.254 159.681 295.991 159.579 295.564Z" fill="black"/>
<path fill-rule="evenodd" clip-rule="evenodd" d="M231.778 271.806C231.676 271.379 231.94 270.951 232.367 270.849L276.675 260.279C277.102 260.177 277.53 260.441 277.632 260.868C277.734 261.295 277.47 261.723 277.043 261.825L232.735 272.394C232.308 272.496 231.88 272.233 231.778 271.806Z" fill="black"/>
<path fill-rule="evenodd" clip-rule="evenodd" d="M233.255 277.989C233.153 277.562 233.416 277.133 233.843 277.031L274.545 267.322C274.972 267.22 275.4 267.484 275.502 267.911C275.604 268.337 275.34 268.766 274.914 268.868L234.212 278.577C233.785 278.679 233.356 278.415 233.255 277.989Z" fill="black"/>
<path fill-rule="evenodd" clip-rule="evenodd" d="M234.114 281.595C234.012 281.168 234.276 280.74 234.703 280.638L256.857 275.353C257.283 275.251 257.712 275.515 257.814 275.941C257.916 276.368 257.652 276.797 257.225 276.899L235.071 282.183C234.644 282.285 234.216 282.022 234.114 281.595Z" fill="black"/>
<path fill-rule="evenodd" clip-rule="evenodd" d="M160.438 299.17C160.336 298.743 160.6 298.315 161.027 298.213L174.937 294.895C175.364 294.793 175.793 295.056 175.895 295.483C175.996 295.91 175.733 296.338 175.306 296.44L161.395 299.759C160.969 299.86 160.54 299.597 160.438 299.17Z" fill="black"/>
<path fill-rule="evenodd" clip-rule="evenodd" d="M240.162 189.304C239.788 189.074 239.672 188.584 239.901 188.211L247.355 176.086C247.585 175.713 248.074 175.596 248.448 175.826C248.822 176.056 248.939 176.545 248.709 176.919L241.255 189.043C241.025 189.417 240.536 189.533 240.162 189.304Z" fill="black" fill-opacity="0.6"/>
<path fill-rule="evenodd" clip-rule="evenodd" d="M236.281 209.778C235.908 209.548 235.791 209.059 236.021 208.685L263.875 163.379C264.104 163.005 264.594 162.889 264.967 163.118C265.341 163.348 265.458 163.837 265.228 164.211L237.374 209.517C237.144 209.891 236.655 210.008 236.281 209.778Z" fill="black" fill-opacity="0.6"/>
<path fill-rule="evenodd" clip-rule="evenodd" d="M253.192 197.933L244.145 212.656C243.915 213.03 243.426 213.147 243.052 212.917C242.678 212.687 242.561 212.198 242.791 211.824L251.839 197.101C252.068 196.727 252.558 196.611 252.932 196.84C253.305 197.07 253.422 197.559 253.192 197.933ZM260.561 184.427C260.188 184.194 260.075 183.704 260.308 183.332L269.586 168.494C269.818 168.122 270.308 168.009 270.68 168.242C271.052 168.474 271.165 168.964 270.933 169.336L261.655 184.174C261.423 184.547 260.933 184.66 260.561 184.427Z" fill="black" fill-opacity="0.6"/>
<path fill-rule="evenodd" clip-rule="evenodd" d="M248.131 218.822C247.757 218.592 247.64 218.102 247.87 217.729L254.818 206.428C255.047 206.054 255.537 205.938 255.911 206.168C256.284 206.397 256.401 206.887 256.171 207.26L249.224 218.561C248.994 218.935 248.505 219.051 248.131 218.822ZM271.163 181.359C270.789 181.129 270.672 180.639 270.902 180.266L277.686 169.232C277.915 168.858 278.405 168.741 278.779 168.971C279.152 169.201 279.269 169.69 279.039 170.064L272.256 181.098C272.026 181.472 271.537 181.588 271.163 181.359Z" fill="black" fill-opacity="0.6"/>
<path fill-rule="evenodd" clip-rule="evenodd" d="M287.885 167.969C288.262 168.195 288.384 168.683 288.158 169.059L279.418 183.625C279.193 184.001 278.704 184.123 278.328 183.898C277.952 183.672 277.83 183.184 278.056 182.808L286.795 168.242C287.021 167.866 287.509 167.744 287.885 167.969ZM250.981 228.342C250.607 228.112 250.491 227.623 250.72 227.249L260.093 212.004C260.323 211.63 260.812 211.513 261.186 211.743C261.56 211.973 261.677 212.462 261.447 212.836L252.074 228.081C251.844 228.455 251.355 228.572 250.981 228.342Z" fill="black" fill-opacity="0.6"/>
<path fill-rule="evenodd" clip-rule="evenodd" d="M284.136 188.387C283.766 188.15 283.659 187.659 283.896 187.29L290.517 176.961C290.753 176.592 291.245 176.484 291.614 176.721C291.984 176.958 292.091 177.449 291.854 177.819L285.233 188.147C284.996 188.516 284.505 188.624 284.136 188.387ZM260.046 227.759C259.672 227.529 259.555 227.039 259.785 226.666L266.784 215.281C267.014 214.907 267.503 214.791 267.877 215.021C268.251 215.25 268.368 215.74 268.138 216.113L261.139 227.498C260.909 227.872 260.42 227.988 260.046 227.759Z" fill="black" fill-opacity="0.6"/>
<path fill-rule="evenodd" clip-rule="evenodd" d="M295.561 183.592C295.938 183.815 296.063 184.303 295.84 184.68L288.16 197.657C287.936 198.035 287.449 198.16 287.071 197.936C286.694 197.713 286.569 197.225 286.792 196.848L294.472 183.871C294.696 183.493 295.183 183.368 295.561 183.592ZM268.326 228.454C267.951 228.226 267.832 227.737 268.059 227.362L275.349 215.359C275.577 214.983 276.066 214.864 276.441 215.092C276.816 215.32 276.935 215.808 276.708 216.183L269.418 228.187C269.19 228.562 268.701 228.682 268.326 228.454Z" fill="black" fill-opacity="0.6"/>
<path fill-rule="evenodd" clip-rule="evenodd" d="M274.249 232.975C273.874 232.748 273.755 232.259 273.983 231.884L301.891 185.982C302.119 185.607 302.608 185.487 302.983 185.715C303.358 185.943 303.477 186.432 303.249 186.807L275.341 232.709C275.113 233.084 274.624 233.203 274.249 232.975Z" fill="black" fill-opacity="0.6"/>
<path fill-rule="evenodd" clip-rule="evenodd" d="M289.981 221.543C289.607 221.313 289.49 220.824 289.719 220.45L298.187 206.636C298.416 206.262 298.905 206.144 299.279 206.374C299.654 206.603 299.771 207.092 299.542 207.466L291.074 221.281C290.844 221.655 290.355 221.772 289.981 221.543Z" fill="black" fill-opacity="0.6"/>
<path fill-rule="evenodd" clip-rule="evenodd" d="M254.775 165.838C256.926 164.839 259.21 164.028 261.611 163.456C264.012 162.883 266.416 162.576 268.786 162.496C269.416 162.475 269.973 162.899 270.119 163.512L271.127 167.735C273.639 167.826 276.093 168.217 278.463 168.898L280.737 165.199C281.067 164.663 281.729 164.433 282.32 164.649C284.61 165.488 286.77 166.589 288.81 167.843L288.116 168.971L288.81 167.843C290.85 169.098 292.808 170.528 294.589 172.192C295.049 172.622 295.143 173.317 294.813 173.854L292.539 177.552C294.217 179.359 295.674 181.372 296.889 183.574L301.112 182.566C301.724 182.42 302.355 182.725 302.62 183.297C303.619 185.448 304.43 187.731 305.003 190.133C305.575 192.534 305.883 194.937 305.963 197.308C305.984 197.937 305.559 198.495 304.946 198.641L300.723 199.648C300.633 202.161 300.242 204.615 299.56 206.984L303.259 209.258C303.796 209.588 304.026 210.25 303.809 210.842C302.97 213.131 301.869 215.291 300.615 217.331C299.361 219.372 297.93 221.329 296.266 223.111C295.836 223.571 295.141 223.665 294.605 223.335L290.906 221.061C289.099 222.739 287.086 224.195 284.885 225.41L285.892 229.634C286.038 230.246 285.733 230.877 285.162 231.142C283.01 232.141 280.727 232.952 278.326 233.524C275.925 234.097 273.521 234.404 271.15 234.484C270.521 234.505 269.964 234.081 269.818 233.468L268.81 229.245C266.297 229.154 263.844 228.763 261.474 228.082L259.2 231.781C258.87 232.317 258.208 232.547 257.617 232.331C255.327 231.492 253.167 230.391 251.127 229.137C249.087 227.882 247.129 226.452 245.347 224.788C244.887 224.358 244.793 223.663 245.123 223.126L247.397 219.428C245.72 217.621 244.263 215.608 243.048 213.406L238.825 214.414C238.212 214.56 237.582 214.255 237.316 213.683C236.318 211.532 235.507 209.248 234.934 206.847C234.361 204.446 234.054 202.043 233.974 199.672C233.953 199.043 234.378 198.485 234.99 198.339L239.214 197.332C239.304 194.819 239.695 192.365 240.376 189.996L236.678 187.722C236.141 187.392 235.911 186.73 236.128 186.138C236.966 183.849 238.067 181.689 239.322 179.649C240.576 177.608 242.006 175.651 243.671 173.869C244.101 173.409 244.795 173.315 245.332 173.645L249.031 175.919C250.837 174.241 252.851 172.785 255.052 171.57L254.044 167.346C253.898 166.734 254.204 166.103 254.775 165.838ZM262.226 166.032C260.366 166.475 258.581 167.074 256.876 167.801L257.866 171.952C258.008 172.547 257.724 173.162 257.179 173.439C254.537 174.784 252.183 176.492 250.144 178.522C249.71 178.954 249.038 179.032 248.516 178.712L244.885 176.479C243.661 177.892 242.568 179.425 241.578 181.036L241.578 181.036C240.587 182.646 239.713 184.313 239.005 186.043L242.636 188.276C243.157 188.597 243.391 189.232 243.202 189.814C242.311 192.55 241.85 195.422 241.842 198.386C241.84 198.997 241.42 199.528 240.825 199.67L236.674 200.66C236.794 202.51 237.067 204.374 237.51 206.233C237.954 208.092 238.552 209.878 239.28 211.583L243.43 210.593C244.025 210.451 244.64 210.735 244.918 211.28C246.263 213.921 247.97 216.275 250 218.314C250.432 218.748 250.51 219.421 250.19 219.942L247.957 223.574C249.371 224.798 250.903 225.89 252.514 226.881L251.82 228.009L252.514 226.881C254.125 227.871 255.791 228.745 257.522 229.454L259.754 225.822C260.075 225.301 260.711 225.067 261.292 225.257C264.029 226.148 266.9 226.609 269.864 226.617C270.476 226.618 271.007 227.039 271.148 227.633L272.139 231.784C273.988 231.664 275.852 231.392 277.711 230.948C279.57 230.505 281.356 229.906 283.061 229.179L282.071 225.028C281.929 224.433 282.213 223.818 282.758 223.541C285.399 222.196 287.753 220.488 289.793 218.458C290.226 218.026 290.899 217.948 291.42 218.268L295.052 220.501C296.276 219.088 297.369 217.555 298.359 215.944C299.349 214.334 300.224 212.667 300.932 210.937L297.301 208.704C296.779 208.383 296.546 207.748 296.735 207.166C297.626 204.43 298.087 201.558 298.095 198.594C298.097 197.983 298.517 197.452 299.112 197.31L303.263 196.32C303.142 194.47 302.87 192.606 302.427 190.747C301.983 188.888 301.385 187.102 300.657 185.397L296.506 186.387C295.911 186.529 295.297 186.245 295.019 185.7C293.674 183.059 291.967 180.705 289.936 178.666C289.505 178.232 289.426 177.559 289.747 177.038L291.979 173.406C290.566 172.182 289.033 171.09 287.423 170.099C285.812 169.109 284.145 168.235 282.415 167.526L280.182 171.158C279.862 171.679 279.226 171.913 278.644 171.723C275.908 170.832 273.037 170.371 270.073 170.363C269.461 170.362 268.93 169.941 268.788 169.347L267.798 165.196C265.948 165.316 264.085 165.588 262.226 166.032ZM266.251 182.905C257.648 184.957 252.331 193.605 254.383 202.208C256.435 210.81 265.084 216.127 273.686 214.075C282.289 212.023 287.606 203.375 285.553 194.772C283.501 186.17 274.853 180.853 266.251 182.905ZM251.807 202.822C249.416 192.797 255.611 182.72 265.636 180.329C275.661 177.937 285.738 184.132 288.13 194.158C290.521 204.183 284.326 214.26 274.301 216.651C264.275 219.043 254.199 212.848 251.807 202.822Z" fill="black"/>
<path fill-rule="evenodd" clip-rule="evenodd" d="M114.819 199.241C114.717 198.814 114.981 198.385 115.408 198.284L192.947 179.787C193.374 179.685 193.802 179.949 193.904 180.375C194.006 180.802 193.742 181.231 193.316 181.333L115.776 199.829C115.349 199.931 114.921 199.668 114.819 199.241Z" fill="black"/>
<path fill-rule="evenodd" clip-rule="evenodd" d="M160.091 260.047C159.989 259.62 160.252 259.192 160.679 259.09L208.594 247.66C209.021 247.558 209.449 247.822 209.551 248.249C209.653 248.675 209.389 249.104 208.962 249.206L161.048 260.636C160.621 260.737 160.192 260.474 160.091 260.047Z" fill="black"/>
<path fill-rule="evenodd" clip-rule="evenodd" d="M222.686 245.114C222.584 244.688 222.848 244.259 223.275 244.157L301.329 225.538C301.756 225.436 302.185 225.699 302.286 226.126C302.388 226.553 302.125 226.981 301.698 227.083L223.643 245.703C223.217 245.805 222.788 245.541 222.686 245.114Z" fill="black"/>
<path fill-rule="evenodd" clip-rule="evenodd" d="M238.534 170.002C238.432 169.575 238.696 169.147 239.122 169.045L286.522 157.738C286.949 157.636 287.377 157.899 287.479 158.326C287.581 158.753 287.317 159.182 286.891 159.283L239.491 170.59C239.064 170.692 238.636 170.429 238.534 170.002Z" fill="black"/>
<path fill-rule="evenodd" clip-rule="evenodd" d="M235.685 303.719C236.808 304.621 237.816 305.98 238.058 307.673C238.532 310.991 240.705 314.192 242.769 316.515C243.255 317.061 243.206 317.898 242.659 318.384C242.112 318.87 241.275 318.821 240.79 318.274C238.617 315.83 236.022 312.146 235.437 308.048C235.314 307.19 234.777 306.386 234.028 305.785C233.25 305.161 232.46 304.924 232.05 304.946C231.32 304.984 230.697 304.423 230.658 303.693C230.62 302.963 231.181 302.339 231.911 302.301C233.178 302.234 234.59 302.841 235.685 303.719Z" fill="black"/>
<path fill-rule="evenodd" clip-rule="evenodd" d="M233.567 307.65C233.567 307.725 233.567 307.795 233.567 307.861C233.567 308.592 232.974 309.185 232.242 309.185C231.511 309.185 230.918 308.592 230.918 307.861C230.918 307.826 230.918 307.791 230.918 307.756C230.919 306.72 230.919 305.654 230.537 304.828C230.363 304.45 230.121 304.162 229.762 303.96C229.391 303.752 228.788 303.577 227.8 303.622C227.07 303.655 226.451 303.09 226.417 302.359C226.384 301.629 226.95 301.01 227.68 300.976C229.023 300.915 230.148 301.14 231.058 301.651C231.981 302.169 232.573 302.92 232.941 303.716C233.581 305.099 233.572 306.723 233.567 307.65Z" fill="black"/>
<path fill-rule="evenodd" clip-rule="evenodd" d="M227.642 301.58C228.913 302.776 229.676 304.487 230.053 305.572C230.293 306.262 229.928 307.017 229.238 307.257C228.547 307.498 227.792 307.132 227.552 306.442C227.223 305.497 226.633 304.267 225.827 303.508C225.441 303.145 225.056 302.937 224.67 302.869C224.299 302.804 223.796 302.843 223.114 303.205C222.468 303.547 221.666 303.3 221.324 302.654C220.982 302.007 221.228 301.206 221.875 300.864C222.993 300.272 224.091 300.078 225.13 300.261C226.154 300.442 226.989 300.965 227.642 301.58Z" fill="black"/>
<path fill-rule="evenodd" clip-rule="evenodd" d="M209.854 291.248C211.181 290.814 212.602 291.183 213.443 291.551C214.852 292.161 217.002 293.313 218.955 294.822C220.866 296.298 222.811 298.286 223.46 300.62C223.971 302.461 224.582 304.054 225.187 305.251C225.489 305.849 225.779 306.328 226.041 306.682C226.316 307.052 226.506 307.213 226.586 307.262C227.208 307.646 227.403 308.461 227.019 309.084C226.636 309.707 225.82 309.901 225.198 309.518C224.704 309.214 224.276 308.748 223.913 308.258C223.538 307.751 223.171 307.135 222.823 306.445C222.125 305.063 221.456 303.302 220.908 301.329C220.497 299.85 219.133 298.306 217.336 296.918C215.582 295.563 213.628 294.517 212.388 293.98L212.384 293.978L212.384 293.978C211.812 293.728 211.116 293.622 210.679 293.765C210.507 293.821 210.376 293.913 210.268 294.088C210.147 294.285 210.002 294.677 210.002 295.413C210.002 295.671 210.172 296.114 210.862 296.843C211.427 297.44 212.158 298.046 213.001 298.746C213.154 298.873 213.311 299.003 213.472 299.137C214.471 299.971 215.573 300.922 216.45 301.992C217.331 303.068 218.067 304.359 218.206 305.887C218.421 308.255 218.469 309.986 218.436 311.2C218.42 311.806 218.383 312.294 218.335 312.675C218.291 313.024 218.227 313.374 218.117 313.649L218.096 313.7L218.072 313.749C217.683 314.527 216.798 315.386 215.43 315.447C214.102 315.506 212.679 314.794 211.184 313.299C209.972 312.086 208.576 311.333 207.291 310.941C205.998 310.547 204.917 310.548 204.301 310.715C204.026 310.81 203.741 310.954 203.517 311.129C203.282 311.311 203.182 311.472 203.148 311.58C203.13 311.638 202.934 312.309 204.723 313.701C205.271 314.127 206.162 314.67 207.307 315.369C211.412 317.873 218.784 322.371 225.339 330.606C225.794 331.178 225.699 332.011 225.127 332.467C224.555 332.922 223.722 332.827 223.267 332.255C217.076 324.477 210.464 320.428 206.263 317.855C204.939 317.044 203.854 316.38 203.097 315.791C201.073 314.217 200.083 312.505 200.621 310.788C200.865 310.009 201.381 309.435 201.891 309.038C202.404 308.639 202.981 308.364 203.492 308.193L203.519 308.184L203.547 308.176C204.789 307.821 206.424 307.908 208.064 308.408C209.732 308.917 211.515 309.884 213.057 311.426C214.316 312.685 215.056 312.812 215.312 312.801C215.484 312.793 215.597 312.715 215.662 312.63C215.673 312.579 215.689 312.487 215.708 312.343C215.742 312.07 215.774 311.672 215.789 311.129C215.818 310.043 215.777 308.419 215.569 306.126C215.496 305.323 215.099 304.522 214.402 303.671C213.7 302.815 212.775 302.005 211.775 301.17C211.632 301.051 211.485 300.93 211.338 300.807C210.502 300.115 209.624 299.387 208.939 298.664C208.156 297.837 207.353 296.745 207.353 295.413C207.353 294.349 207.561 293.432 208.014 292.698C208.48 291.942 209.143 291.481 209.854 291.248Z" fill="black"/>
<path fill-rule="evenodd" clip-rule="evenodd" d="M231.087 336.356C229.562 333.592 228.826 329.775 230.846 326.71C232.883 323.62 238.087 320.713 249.867 320.713C252.86 320.713 257.002 321.8 261.963 323.851C266.892 325.889 272.514 328.83 278.426 332.424C290.252 339.612 303.153 349.359 313.887 359.568C314.417 360.072 315.255 360.051 315.759 359.521C316.263 358.991 316.242 358.153 315.712 357.649C304.837 347.306 291.784 337.444 279.802 330.161C273.81 326.519 268.065 323.508 262.975 321.403C257.916 319.312 253.387 318.065 249.867 318.065C237.841 318.065 231.433 321.007 228.635 325.252C225.83 329.509 227.023 334.496 228.791 337.676C228.879 337.834 228.98 337.974 229.098 338.105C235.768 345.476 252 362.06 263.982 369.762C264.597 370.157 265.416 369.979 265.812 369.364C266.207 368.749 266.029 367.93 265.414 367.534C253.771 360.049 237.768 343.735 231.087 336.356Z" fill="black"/>
<path fill-rule="evenodd" clip-rule="evenodd" d="M57.6567 288.739C56.4483 291.541 55.6488 294.615 55.1114 297.131C54.0792 301.964 51.1971 309.19 47.3226 315.718C41.6083 325.346 28.3524 345.256 23.2797 352.442C22.8579 353.04 23.0004 353.866 23.5979 354.288C24.1953 354.709 25.0215 354.567 25.4433 353.97C30.5401 346.749 43.8383 326.778 49.6 317.07C53.5848 310.356 56.5957 302.861 57.7013 297.684C58.2232 295.241 58.9796 292.359 60.0885 289.788C61.2116 287.183 62.619 285.081 64.338 283.978C65.9372 282.952 67.9951 282.67 70.8524 284.122C73.7965 285.617 77.5065 288.928 82.0965 295.026C82.0965 295.026 82.0965 295.026 82.0965 295.026L82.1358 295.078C83.2317 296.534 84.1933 297.812 84.8489 299.458C85.5 301.092 85.8732 303.164 85.5886 306.167C85.0112 312.256 81.7501 321.998 72.8852 339.199C72.5502 339.849 72.8056 340.647 73.4557 340.982C74.1057 341.317 74.9043 341.062 75.2393 340.412C84.1184 323.184 87.596 313.051 88.2251 306.417C88.5436 303.057 88.1369 300.555 87.3092 298.477C86.5207 296.498 85.3714 294.972 84.3194 293.576C84.2836 293.528 84.248 293.481 84.2124 293.434L84.2124 293.434C79.5333 287.217 75.53 283.528 72.052 281.761C68.487 279.949 65.4138 280.141 62.9081 281.749C60.5222 283.279 58.8509 285.969 57.6567 288.739Z" fill="black"/>
<path fill-rule="evenodd" clip-rule="evenodd" d="M112.147 244.835C114.66 244.151 115.45 245.365 115.529 245.553C115.603 245.727 115.633 246.008 115.501 246.5C115.367 246.999 115.109 247.562 114.776 248.227C114.463 248.851 114.23 249.332 114.027 249.748C113.733 250.354 113.505 250.824 113.194 251.4C112.776 252.178 112.33 253.196 111.83 254.337C111.583 254.901 111.323 255.495 111.047 256.105C110.185 258.005 109.094 260.232 107.57 262.68L107.561 262.695L102.92 270.629L102.91 270.648C101.563 273.129 99.1818 276.207 96.5905 279.32C95.4263 280.719 94.2017 282.145 93.0315 283.508C91.6629 285.102 90.3688 286.609 89.3326 287.884C88.8715 288.452 88.9578 289.286 89.5253 289.747C90.0929 290.208 90.9269 290.122 91.3881 289.554C92.4307 288.271 93.6661 286.833 94.995 285.287C96.1561 283.935 97.3885 282.501 98.626 281.014C101.209 277.912 103.74 274.662 105.227 271.93L109.828 264.064C111.429 261.489 112.571 259.156 113.459 257.198C113.783 256.483 114.065 255.838 114.32 255.255C114.785 254.193 115.158 253.34 115.527 252.655C115.857 252.041 116.125 251.491 116.444 250.836C116.646 250.419 116.87 249.96 117.143 249.414C117.478 248.747 117.848 247.971 118.059 247.187C118.271 246.397 118.362 245.452 117.969 244.523M117.969 244.523C117.334 243.02 115.144 241.274 111.451 242.28C107.925 243.239 105.582 246.126 104.783 247.529C104.462 247.996 103.627 249.074 102.735 250.176C101.81 251.32 100.93 252.361 100.592 252.698C99.7324 253.552 97.0998 255.825 94.0383 257.326C90.8978 258.865 87.8579 259.342 85.6525 257.608C85.0777 257.156 84.2452 257.255 83.7931 257.83C83.3411 258.405 83.4407 259.238 84.0155 259.69C87.509 262.437 91.8872 261.33 95.204 259.704C98.5997 258.039 101.463 255.566 102.459 254.575C102.919 254.118 103.895 252.954 104.795 251.841C105.701 250.72 106.635 249.522 107.008 248.966L107.039 248.92L107.066 248.871C107.638 247.843 109.513 245.552 112.147 244.835" fill="black"/>
<path fill-rule="evenodd" clip-rule="evenodd" d="M96.9637 235.046C99.0783 233.909 100.898 234.039 103.918 234.582C105.876 234.935 107.499 235.628 108.632 236.319C109.2 236.665 109.622 236.996 109.893 237.262C110.023 237.39 110.103 237.487 110.146 237.547C110.188 237.839 110.152 238.016 110.11 238.123C110.065 238.241 109.977 238.369 109.79 238.509C109.366 238.828 108.6 239.086 107.477 239.258C106.388 239.425 105.162 239.486 103.937 239.544C103.904 239.546 103.871 239.547 103.838 239.549C102.696 239.603 101.503 239.66 100.592 239.837L100.206 239.911L99.9233 240.185C98.4674 241.593 95.5237 243.417 92.214 245.255C89.9468 246.514 87.6032 247.73 85.5791 248.78C84.6794 249.247 83.8428 249.681 83.1041 250.072C82.4576 250.413 82.2105 251.215 82.5524 251.861C82.8942 252.508 83.6954 252.755 84.3419 252.413C85.0489 252.039 85.8659 251.615 86.7534 251.155C88.7908 250.098 91.1995 248.848 93.5 247.57C96.5828 245.858 99.6511 244 101.454 242.378C102.128 242.284 103.012 242.24 104.064 242.19L104.074 242.189C105.268 242.132 106.632 242.067 107.878 241.876C109.093 241.689 110.409 241.356 111.379 240.628C111.889 240.245 112.327 239.736 112.582 239.075C112.836 238.415 112.871 237.699 112.732 236.96C112.663 236.592 112.489 236.282 112.336 236.058C112.171 235.818 111.968 235.587 111.746 235.369C111.3 234.933 110.709 234.483 110.01 234.057C108.609 233.203 106.678 232.388 104.387 231.976C101.291 231.419 98.6761 231.119 95.7101 232.713C95.5498 232.799 95.3997 232.879 95.2569 232.956C94.1332 233.556 93.4602 233.916 91.8257 234.999C90.6132 235.546 89.7226 236.182 88.8795 236.784C88.6562 236.944 88.4363 237.101 88.2146 237.253C86.9474 238.124 85.1407 239.49 82.6384 241.851C82.1065 242.353 82.0821 243.191 82.584 243.723C83.0859 244.255 83.9239 244.279 84.4559 243.778C86.8598 241.509 88.5604 240.229 89.7147 239.436C90.007 239.235 90.27 239.047 90.5175 238.871C91.3482 238.28 92.003 237.814 92.9998 237.375L93.1038 237.329L93.1986 237.266C94.7963 236.205 95.391 235.887 96.5026 235.293C96.6465 235.216 96.7991 235.134 96.9637 235.046ZM110.174 237.593C110.175 237.593 110.174 237.59 110.171 237.586C110.173 237.59 110.174 237.593 110.174 237.593Z" fill="black"/>
<path fill-rule="evenodd" clip-rule="evenodd" d="M91.8555 237.339C91.8558 237.338 91.8477 237.334 91.8324 237.326C92.4748 237.675 93.2789 237.438 93.6284 236.796C93.978 236.153 93.7406 235.349 93.0983 235C92.6355 234.748 92.0352 234.661 91.5084 234.633C90.9267 234.601 90.2285 234.633 89.4495 234.741C87.8885 234.958 85.9354 235.493 83.8414 236.53C80.4511 238.21 79.1709 239.121 78.0321 239.932C77.696 240.171 77.3722 240.402 77.0101 240.64L76.9603 240.673C75.3132 241.76 71.9677 243.967 70.6143 245.068C68.2673 246.976 66.0861 249.158 65.1738 250.331L65.1385 250.376L65.1073 250.424C64.669 251.101 64.3641 251.795 64.2322 252.55C64.1001 253.307 64.1551 254.048 64.3351 254.8C64.6769 256.228 65.5239 257.866 66.5923 259.91C66.9311 260.558 67.7311 260.809 68.3792 260.47C69.0274 260.132 69.2781 259.332 68.9394 258.683C67.8148 256.532 67.1589 255.22 66.9106 254.184C66.7957 253.703 66.7838 253.334 66.8411 253.006C66.8966 252.688 67.0292 252.339 67.2997 251.911C68.0719 250.936 70.0608 248.931 72.2851 247.123C73.5215 246.117 76.7718 243.971 78.4686 242.851C78.8841 242.577 79.2355 242.327 79.587 242.077C80.7046 241.282 81.8246 240.485 85.0168 238.904C86.8534 237.994 88.5326 237.542 89.8143 237.364C90.4565 237.275 90.9823 237.256 91.3655 237.277C91.7165 237.296 91.8541 237.343 91.8555 237.339Z" fill="black"/>
<path fill-rule="evenodd" clip-rule="evenodd" d="M69.082 265.762C68.3507 265.762 67.7578 266.355 67.7578 267.086C67.7578 269.77 67.137 276.233 65.2606 281.573C65.0181 282.263 65.381 283.019 66.0709 283.261C66.7609 283.504 67.5167 283.141 67.7592 282.451C69.7583 276.761 70.4062 269.989 70.4062 267.086C70.4062 266.355 69.8133 265.762 69.082 265.762Z" fill="black"/>
<path fill-rule="evenodd" clip-rule="evenodd" d="M116.849 232.48L111.088 235.39C110.435 235.719 110.173 236.516 110.503 237.169C110.833 237.821 111.629 238.083 112.282 237.753L115.885 235.934L117.771 238.95L112.096 242.018C111.453 242.366 111.213 243.169 111.561 243.813C111.909 244.456 112.713 244.696 113.356 244.348L121.513 239.938L116.849 232.48ZM108.686 245.461C108.335 244.819 107.531 244.583 106.889 244.934L69.5718 265.324C68.0526 265.881 66.869 265.152 66.3897 264.148C66.1435 263.631 66.1054 263.082 66.275 262.605C66.4375 262.149 66.8398 261.621 67.7409 261.224L67.786 261.204L84.3237 252.387C84.969 252.043 85.2132 251.241 84.8692 250.596C84.5251 249.95 83.7231 249.706 83.0777 250.05L66.6248 258.822C65.1817 259.471 64.2155 260.493 63.7799 261.717C63.3466 262.935 63.4877 264.215 63.9995 265.288C65.0285 267.445 67.6452 268.922 70.6094 267.762L70.6879 267.732L108.159 247.258C108.801 246.907 109.037 246.103 108.686 245.461Z" fill="black"/>
<path fill-rule="evenodd" clip-rule="evenodd" d="M125.21 232.068C124.604 231.659 123.781 231.818 123.371 232.424L119.472 238.195C119.063 238.801 119.222 239.624 119.828 240.033C120.434 240.443 121.257 240.284 121.666 239.678L125.566 233.907C125.975 233.301 125.816 232.478 125.21 232.068Z" fill="black"/>
<path fill-rule="evenodd" clip-rule="evenodd" d="M125.789 233.064C125.733 232.334 125.096 231.789 124.367 231.845L117.188 232.399C116.459 232.455 115.913 233.092 115.97 233.821C116.026 234.55 116.663 235.096 117.392 235.039L124.57 234.486C125.3 234.429 125.845 233.793 125.789 233.064Z" fill="black"/>
<path fill-rule="evenodd" clip-rule="evenodd" d="M111.244 32.7006C111.217 31.3654 112.291 30.2684 113.627 30.2684L135.37 30.2684C136.643 30.2684 137.691 31.2694 137.75 32.5414L138.65 51.9215C137.962 78.9486 138.893 94.3709 142.039 122.189C142.105 123.549 141.02 124.687 139.658 124.687C133.931 126.524 130.976 126.731 126.471 124.687C126.217 128.598 123.311 131.024 120.184 131.294C118.45 131.444 116.638 130.932 115.223 129.649C113.8 128.359 112.887 126.391 112.749 123.826L112.748 123.801C111.775 95.6877 111.553 79.969 111.638 52.0117L111.638 52.0051L111.244 32.7006ZM126.428 122.039C131.486 123.615 134.322 123.492 139.381 122.039C135.94 94.6918 134.839 79.3653 136.005 52.0491L135.117 32.9167L124.508 32.9167L125.145 51.9511C127.775 83.4877 126.951 96.8679 126.428 122.039ZM121.859 32.9167L113.897 32.9167L114.286 51.9641C113.542 79.9975 113.635 95.6931 115.395 123.709C115.506 125.695 116.19 126.951 117.002 127.687C117.826 128.433 118.891 128.748 119.956 128.656C122.055 128.474 124.118 126.712 123.809 123.49L123.804 123.439C124.133 96.739 123.863 81.142 122.497 52.0196L121.859 32.9167Z" fill="black"/>
<path fill-rule="evenodd" clip-rule="evenodd" d="M244.539 5.20549C204.247 24.6957 187.306 35.1667 151.835 59.615C150.568 60.3464 150.134 61.966 150.866 63.2327C162.745 86.7604 170.177 99.4802 184.5 121.488C185.231 122.755 186.851 123.189 188.117 122.458C223.468 97.0894 239.314 86.0825 280.821 68.0481C282.088 67.3168 282.522 65.6971 281.791 64.4304C273.305 38.8918 265.714 26.2731 248.157 6.17485C247.426 4.90817 245.806 4.47417 244.539 5.20549ZM150.511 57.3215C147.978 58.7841 147.11 62.0235 148.572 64.5569L164.5 94L182.206 122.812C183.669 125.346 186.908 126.214 189.441 124.751C225.28 99.8217 241.32 89.0411 282.146 70.3416C284.679 68.879 285.547 65.6396 284.084 63.1062C276.242 37.7303 268.53 25.1498 250.45 4.85068C248.988 2.31732 245.748 1.44933 243.215 2.91196C201.98 22.5891 185.666 32.9874 150.511 57.3215Z" fill="black"/>
<path d="M166.039 63.0339C166.917 64.5539 166.499 66.4383 165.105 67.2427C163.712 68.0472 161.871 67.4671 160.993 65.9471C160.116 64.427 160.534 62.5427 161.927 61.7382C163.321 60.9338 165.161 61.5139 166.039 63.0339Z" fill="black"/>
<path fill-rule="evenodd" clip-rule="evenodd" d="M254.662 68.0049C254.296 67.3716 254.513 66.5617 255.147 66.1961L271.66 56.6621C272.293 56.2964 273.103 56.5134 273.469 57.1467C273.835 57.7801 273.618 58.5899 272.984 58.9556L256.471 68.4896C255.838 68.8553 255.028 68.6383 254.662 68.0049ZM263.067 69.2682C262.702 68.6348 262.919 67.825 263.552 67.4593L274.308 61.2491C274.942 60.8835 275.752 61.1005 276.117 61.7338C276.483 62.3671 276.266 63.177 275.633 63.5426L264.876 69.7529C264.243 70.1185 263.433 69.9015 263.067 69.2682Z" fill="black"/>
<path fill-rule="evenodd" clip-rule="evenodd" d="M182.17 95.65C181.748 95.0524 181.891 94.2263 182.488 93.8047C186.296 91.1181 196.195 88.4383 208.287 95.5846C207.985 88.5795 208.148 81.089 212.06 75.3451C216.134 69.364 223.97 65.6396 238.177 65.6435C234.354 62.4911 230.403 57.8098 228.504 51.9513C226.423 45.5282 226.86 37.8366 232.36 29.4574L229.578 30.1358C228.667 30.3579 227.831 29.8941 227.482 29.1569C227.128 28.4074 227.313 27.4478 228.104 26.8995C230.333 25.3525 233.161 23.6816 235.413 22.9103C235.984 22.7146 236.556 22.5635 237.097 22.4948C237.623 22.4279 238.215 22.4267 238.772 22.6188C239.379 22.8279 239.9 23.2557 240.183 23.915C240.443 24.5195 240.445 25.1856 240.34 25.815C239.958 28.1066 239.922 29.6849 240.219 30.9967C240.509 32.2782 241.145 33.4266 242.336 34.8028C242.815 35.3557 242.754 36.192 242.201 36.6706C241.649 37.1493 240.812 37.089 240.334 36.5361C238.958 34.947 238.051 33.416 237.636 31.5811C237.227 29.7766 237.324 27.8014 237.728 25.3796C237.748 25.2601 237.755 25.1695 237.756 25.1031C237.68 25.1005 237.574 25.1039 237.43 25.1221C237.126 25.1607 236.738 25.2558 236.271 25.4157C235.624 25.6374 234.897 25.9578 234.135 26.3433C234.835 26.3274 235.42 26.7178 235.733 27.2126C236.101 27.793 236.176 28.6363 235.667 29.3339C229.536 37.7267 229.082 45.1437 231.023 51.1349C232.991 57.2074 237.479 61.9828 241.485 64.8487C242.292 65.4256 242.38 66.3689 242.156 67.018C241.933 67.6651 241.29 68.3456 240.313 68.3203C225.059 67.9255 217.777 71.6559 214.249 76.8359C210.632 82.1466 210.619 89.3934 211.003 96.938C211.082 98.5002 209.361 99.3864 208.127 98.5957C196.309 91.0245 187.018 93.8497 184.015 95.9686C183.418 96.3902 182.591 96.2476 182.17 95.65Z" fill="black"/>
<path d="M402.992 267.743C391.06 284.67 366.749 288.075 348.693 275.347C330.637 262.619 325.672 238.578 337.605 221.65C349.538 204.723 373.848 201.318 391.905 214.046C409.961 226.774 414.925 250.815 402.992 267.743Z" fill="white"/>
<path fill-rule="evenodd" clip-rule="evenodd" d="M383.394 247.105L382.929 246.729C381.756 239.38 379.546 232.529 376.96 228.452C375.818 226.653 374.281 225.628 372.414 225.391C370.561 225.157 368.406 225.684 366.866 226.661L366.516 226.11L382.45 216L382.733 216.446C380.456 217.891 380.244 221.015 380.89 226.243L383.394 247.105ZM385.032 267.381L346.86 243.209C344.649 241.713 342.939 241.832 340.346 243.477L340.001 242.934L358.172 231.405L358.522 231.956C355.823 233.669 355.078 236.597 357.996 238.383L384.323 255.316L385.616 267.011L385.032 267.381Z" fill="#141414"/>
</svg>