<svg xmlns:xlink="http://www.w3.org/1999/xlink" width="124" height="124" viewBox="0 0 124 124" fill="none" xmlns="http://www.w3.org/2000/svg">
<path fill-rule="evenodd" clip-rule="evenodd" d="M32.3501 57.0361C32.3501 56.6219 32.6859 56.2861 33.1001 56.2861H60.6001C61.0143 56.2861 61.3501 56.6219 61.3501 57.0361V108.336C61.3501 108.75 61.0143 109.086 60.6001 109.086H33.1001C32.6859 109.086 32.3501 108.75 32.3501 108.336V57.0361ZM33.8501 57.7861V107.586H59.8501V57.7861H33.8501Z" fill="black"></path>
<path fill-rule="evenodd" clip-rule="evenodd" d="M60.0555 56.5204C60.1971 56.3709 60.394 56.2861 60.6 56.2861H103.5C103.898 56.2861 104.227 56.5975 104.249 56.9953C104.273 57.4332 104.296 57.8662 104.32 58.2946C105.221 74.7958 105.75 84.4834 104.247 101.403C104.217 101.744 103.959 102.021 103.62 102.076L78.4205 106.176C78.0116 106.243 77.6263 105.965 77.5597 105.557C77.4932 105.148 77.7707 104.762 78.1796 104.696L102.804 100.69C104.234 84.2356 103.712 74.6712 102.821 58.3591C102.811 58.169 102.8 57.978 102.79 57.7861H61.3904C61.8776 67.4319 61.5922 75.4754 61.3157 83.2667L61.311 83.4004C61.0342 91.2027 60.7711 98.755 61.2965 107.462L70.2792 105.996C70.688 105.929 71.0735 106.206 71.1402 106.615C71.207 107.024 70.9297 107.41 70.5209 107.476L60.7209 109.076C60.5122 109.11 60.2988 109.055 60.1333 108.923C59.9677 108.792 59.8655 108.596 59.8516 108.385C59.2522 99.2427 59.5265 91.3912 59.8119 83.3473L59.8161 83.2307C60.1003 75.221 60.3917 67.0082 59.8511 57.0769C59.8399 56.8712 59.9138 56.67 60.0555 56.5204Z" fill="black"></path>
<path d="M28.2 64.6359L33.1 57.0359C43.8395 56.0898 49.8607 55.876 60.6 57.0359C56.6243 65.1876 53.7555 69.5443 47.8 77.0359C36.7802 78.0448 30.7471 78.0825 20.3 77.0359L25.6 68.7359" fill="#FFFFFF"></path>
<path fill-rule="evenodd" clip-rule="evenodd" d="M33.5314 57.751L28.8304 65.0423C28.6059 65.3905 28.1418 65.4907 27.7936 65.2663C27.4455 65.0418 27.3453 64.5777 27.5697 64.2295L32.4697 56.6295C32.5952 56.4349 32.8035 56.3092 33.0342 56.2888C43.8048 55.34 49.8777 55.1235 60.6806 56.2903C60.9235 56.3165 61.1384 56.4594 61.2565 56.6733C61.3747 56.8871 61.3812 57.1451 61.2741 57.3647C57.2707 65.5731 54.3707 69.9756 48.3871 77.5026C48.2597 77.6629 48.0723 77.7641 47.8684 77.7828C36.8065 78.7956 30.7252 78.834 20.2253 77.7822C19.966 77.7562 19.7388 77.5975 19.6252 77.3631C19.5115 77.1286 19.5277 76.8519 19.6679 76.6323L24.9679 68.3323C25.1909 67.9832 25.6546 67.8809 26.0037 68.1038C26.3528 68.3267 26.4551 68.7905 26.2322 69.1396L21.5906 76.4084C31.1533 77.3172 37.0682 77.2556 47.4123 76.3182C52.968 69.3133 55.7874 65.0672 59.453 57.6694C49.5534 56.6558 43.6532 56.8663 33.5314 57.751Z" fill="black"></path>
<path d="M73.4001 77.0361C89.7554 77.7234 99.1458 77.709 116.3 77.0361C110.579 68.9449 107.406 64.422 103.5 57.0361C86.7476 55.8711 77.3515 55.8497 60.6001 57.0361C66.9521 64.6564 69.8935 69.016 73.4001 77.0361Z" fill="#FFFFFF"></path>
<path fill-rule="evenodd" clip-rule="evenodd" d="M60.5471 56.288C77.3345 55.099 86.7658 55.1206 103.552 56.2879C103.811 56.3059 104.042 56.4562 104.163 56.6855C108.044 64.0243 111.191 68.5122 116.912 76.6031C117.071 76.8276 117.094 77.1211 116.973 77.3677C116.851 77.6144 116.604 77.7747 116.33 77.7855C99.1566 78.4592 89.7458 78.4736 73.3686 77.7854C73.0822 77.7734 72.8278 77.5992 72.7129 77.3365C69.2422 69.3987 66.3446 65.099 60.024 57.5163C59.8438 57.3001 59.7998 57.0012 59.9101 56.7422C60.0204 56.4833 60.2664 56.3078 60.5471 56.288ZM62.1101 57.6828C67.7521 64.5347 70.6138 68.8742 73.8986 76.3063C89.5044 76.9545 98.7803 76.953 114.89 76.34C109.752 69.0677 106.689 64.6241 103.033 57.7555C87.0619 56.6551 77.7904 56.6118 62.1101 57.6828Z" fill="black"></path>
<path d="M98.0001 97.0361L85.6001 98.4361L86.2001 103.936L98.6001 102.536L98.0001 97.0361Z" fill="black"></path>
<path d="M67.3 43.7358C75 43.7358 81.3 37.4358 81.3 29.7358C81.3 22.0358 75 15.7358 67.3 15.7358C59.6 15.7358 53.3 22.0358 53.3 29.7358C53.3 37.4358 59.6 43.7358 67.3 43.7358Z" fill="black"></path>
<path fill-rule="evenodd" clip-rule="evenodd" d="M65.4 24.936C64.2762 24.936 63.3 25.9122 63.3 27.036C63.3 28.1725 64.1887 29.136 65.4 29.136H69C70.6762 29.136 72.1001 30.5599 72.1001 32.236C72.1001 33.8995 70.7887 35.336 69 35.336H62.8C62.5239 35.336 62.3 35.1122 62.3 34.836C62.3 34.5599 62.5239 34.336 62.8 34.336H69C70.2114 34.336 71.1001 33.3725 71.1001 32.236C71.1001 31.1122 70.1239 30.136 69 30.136H65.4C63.6114 30.136 62.3 28.6995 62.3 27.036C62.3 25.3599 63.7239 23.936 65.4 23.936H70.6001C70.8762 23.936 71.1001 24.1599 71.1001 24.436C71.1001 24.7122 70.8762 24.936 70.6001 24.936H65.4Z" fill="#FFFFFF"></path>
<path fill-rule="evenodd" clip-rule="evenodd" d="M67.3 20.7358C67.5762 20.7358 67.8 20.9597 67.8 21.2358V24.5358C67.8 24.812 67.5762 25.0358 67.3 25.0358C67.0239 25.0358 66.8 24.812 66.8 24.5358V21.2358C66.8 20.9597 67.0239 20.7358 67.3 20.7358Z" fill="#FFFFFF"></path>
<path fill-rule="evenodd" clip-rule="evenodd" d="M67.3 34.3359C67.5762 34.3359 67.8 34.5598 67.8 34.8359V38.1359C67.8 38.4121 67.5762 38.6359 67.3 38.6359C67.0239 38.6359 66.8 38.4121 66.8 38.1359V34.8359C66.8 34.5598 67.0239 34.3359 67.3 34.3359Z" fill="#FFFFFF"></path>
<path d="M25.4 111.836L44.7 111.336C46.9 111.236 48.6 109.436 48.6 107.236L48 87.2359C47.9 85.0359 46.1 83.3359 43.9 83.3359C31.0268 83.8327 24.0767 84.0447 11.9 84.2359C9.6 84.3359 8 86.1359 8 88.3359L8.6 108.336C8.7 110.536 10.5 112.236 12.7 112.236L15.7 112.136" fill="#FFFFFF"></path>
<path fill-rule="evenodd" clip-rule="evenodd" d="M43.8855 82.5859H43.9C46.4963 82.5859 48.6308 84.5967 48.7492 87.2019L48.7498 87.2134L49.35 107.225V107.236C49.35 109.832 47.3393 111.967 44.7341 112.085L44.7267 112.085L25.4194 112.586C25.0054 112.596 24.661 112.269 24.6503 111.855C24.6395 111.441 24.9665 111.097 25.3806 111.086L44.6729 110.586C46.4608 110.501 47.8445 109.043 47.85 107.247L47.2505 87.2644C47.1663 85.4769 45.7093 84.093 43.9138 84.086C31.0498 84.5823 24.0949 84.7944 11.9226 84.9857C10.0512 85.0719 8.75513 86.5164 8.75002 88.3252L9.34948 108.307C9.43362 110.096 10.8917 111.48 12.6881 111.486L15.675 111.386C16.089 111.373 16.4358 111.697 16.4496 112.111C16.4634 112.525 16.139 112.872 15.725 112.886L12.7125 112.986H12.7C10.1037 112.986 7.96919 110.975 7.85077 108.37L7.85025 108.358L7.25 88.3472V88.3359C7.25 85.753 9.14793 83.6049 11.8674 83.4866L11.8778 83.4862L11.8882 83.486C24.0579 83.2949 31.0021 83.0831 43.8711 82.5865L43.8855 82.5859Z" fill="black"></path>
<path d="M48.3 97.7358H8.30005V105.736H48.3V97.7358Z" fill="black"></path>
<path fill-rule="evenodd" clip-rule="evenodd" d="M39.3 92.9357C38.8 93.4357 38.1 93.6357 37.3 93.6357C35.6 93.6357 34.3 92.3357 34.3 90.6357C34.3 88.9357 35.6 87.6357 37.3 87.6357C38.1 87.6357 38.8 87.9357 39.3 88.3357C39.8 87.8357 40.5 87.6357 41.3 87.6357C43 87.6357 44.3 88.9357 44.3 90.6357C44.3 92.3357 43 93.6357 41.3 93.6357C40.5 93.7357 39.8 93.4357 39.3 92.9357Z" fill="black"></path>
<path fill-rule="evenodd" clip-rule="evenodd" d="M98.2688 34.6398C98.598 34.6777 98.834 34.9754 98.796 35.3046C98.4754 38.0834 96.8753 40.6445 94.5221 42.142L94.5087 42.1503C93.7217 42.6225 92.9132 42.9615 92.1486 43.2822L92.132 43.2891C91.3515 43.6164 90.616 43.9259 89.9087 44.3503C88.4731 45.2116 87.4383 46.5262 87.5959 47.8657C87.6346 48.1948 87.3992 48.493 87.0701 48.5317C86.741 48.5704 86.4428 48.335 86.4041 48.0059C86.1617 45.9454 87.7269 44.26 89.2913 43.3213C90.0783 42.8491 90.8868 42.5101 91.6514 42.1894L91.668 42.1825C92.446 41.8562 93.1793 41.5477 93.8845 41.1254C95.9277 39.8223 97.3249 37.5855 97.604 35.167C97.6419 34.8378 97.9396 34.6018 98.2688 34.6398Z" fill="black"></path>
<path fill-rule="evenodd" clip-rule="evenodd" d="M40.5596 39.2857C37.4467 37.9238 33.981 37.3569 30.7376 38.1201C30.415 38.196 30.092 37.996 30.0161 37.6735C29.9402 37.3509 30.1401 37.0279 30.4627 36.952C34.0192 36.1152 37.7536 36.7483 41.0406 38.1863C44.0076 39.4844 46.6351 41.3702 49.1723 43.1913C49.432 43.3777 49.6908 43.5634 49.9489 43.7478C50.2185 43.9404 50.281 44.3151 50.0884 44.5848C49.8958 44.8544 49.521 44.9169 49.2514 44.7243C48.9945 44.5408 48.7383 44.357 48.4824 44.1734C45.9283 42.3411 43.404 40.5301 40.5596 39.2857Z" fill="black"></path>
<path fill-rule="evenodd" clip-rule="evenodd" d="M89.2147 12.8254C88.4981 12.5198 87.6989 12.5188 87.0942 12.8589C86.8054 13.0214 86.4396 12.919 86.2771 12.6301C86.1147 12.3413 86.2171 11.9755 86.5059 11.813C87.5013 11.2531 88.702 11.3022 89.6855 11.7216C90.6694 12.1412 91.5344 12.9747 91.7858 14.1058C92.0331 15.2186 91.6573 16.349 90.9952 17.1838C90.3339 18.0176 89.3234 18.636 88.2001 18.636C86.7437 18.636 85.2623 17.5589 85.0082 16.0346C84.8764 15.2433 85.1405 14.4484 85.609 13.8706C86.0787 13.2913 86.8086 12.8679 87.6499 12.9381C87.9801 12.9656 88.2255 13.2556 88.198 13.5858C88.1705 13.916 87.8805 14.1614 87.5503 14.1339C87.1916 14.104 86.8215 14.2806 86.5411 14.6264C86.2596 14.9735 86.1238 15.4287 86.1919 15.8373C86.3379 16.713 87.2564 17.436 88.2001 17.436C88.8768 17.436 89.5663 17.0544 90.055 16.4381C90.5429 15.8229 90.7671 15.0534 90.6144 14.3661C90.4657 13.6973 89.9307 13.1308 89.2147 12.8254Z" fill="black"></path>
<path fill-rule="evenodd" clip-rule="evenodd" d="M105.937 38.7678C106.085 39.0642 105.965 39.4246 105.668 39.5728C103.824 40.4952 102.465 42.237 102.195 44.2172C102.15 44.5456 101.847 44.7754 101.519 44.7307C101.191 44.6859 100.961 44.3834 101.006 44.0551C101.336 41.6353 102.977 39.5771 105.132 38.4995C105.428 38.3513 105.789 38.4715 105.937 38.7678Z" fill="black"></path>
<path fill-rule="evenodd" clip-rule="evenodd" d="M38.3441 49.7567C41.0304 49.0335 43.8083 48.9331 46.4688 49.2401C46.798 49.2781 47.0341 49.5757 46.9961 49.9049C46.9581 50.2341 46.6605 50.4701 46.3313 50.4322C43.7918 50.1391 41.1697 50.2387 38.656 50.9155C38.3361 51.0016 38.0068 50.8121 37.9207 50.4921C37.8345 50.1721 38.0241 49.8429 38.3441 49.7567Z" fill="black"></path>
</svg>