<svg xmlns:xlink="http://www.w3.org/1999/xlink" width="124" height="124" viewBox="0 0 124 124" fill="none" xmlns="http://www.w3.org/2000/svg">
<path fill-rule="evenodd" clip-rule="evenodd" d="M108.921 19.4498C112.326 19.4611 115.05 22.1927 115.05 25.5998C115.05 25.6198 115.049 25.6397 115.048 25.6597C113.392 46.336 113.393 58.0323 115.048 79.1412C115.049 79.1607 115.05 79.1802 115.05 79.1998C115.05 82.614 112.314 85.3498 108.9 85.3498H28.4C24.9858 85.3498 22.25 82.614 22.25 79.1998V63.5998C22.25 63.1856 22.5858 62.8498 23 62.8498C23.4142 62.8498 23.75 63.1856 23.75 63.5998V79.1998C23.75 81.7856 25.8142 83.8498 28.4 83.8498H108.9C111.476 83.8498 113.535 81.8006 113.55 79.228C111.892 58.0717 111.891 46.2987 113.55 25.5709C113.535 22.9986 111.476 20.9498 108.9 20.9498C108.886 20.9498 108.873 20.9494 108.859 20.9486C77.2279 19.2083 59.6438 19.3402 28.4386 20.9488C28.4258 20.9495 28.4129 20.9498 28.4 20.9498C25.8142 20.9498 23.75 23.014 23.75 25.5998V52.3998C23.75 52.814 23.4142 53.1498 23 53.1498C22.5858 53.1498 22.25 52.814 22.25 52.3998V25.5998C22.25 22.1922 24.9752 19.4604 28.3801 19.4498C59.6139 17.8401 77.25 17.7077 108.921 19.4498Z" fill="black"></path>
<path fill-rule="evenodd" clip-rule="evenodd" d="M83.139 51.1892C83.5316 51.3212 83.7429 51.7464 83.6109 52.1391C81.6054 58.1056 79.9809 61.6298 78.6515 63.6499C77.3541 65.6215 76.1669 66.4077 74.9983 66.2432C73.9461 66.1033 73.4619 65.1454 73.2102 64.371C72.9408 63.5423 72.799 62.4956 72.6709 61.5503L72.6693 61.5383C72.5346 60.5444 72.4143 59.6624 72.207 59.0239C72.1038 58.7062 71.9999 58.5186 71.9145 58.4209C71.8523 58.3498 71.8255 58.35 71.8029 58.3501C71.8019 58.3501 71.801 58.3501 71.8 58.3501C71.7014 58.3501 71.537 58.391 71.2929 58.5541C71.0513 58.7156 70.7797 58.9649 70.4818 59.2991C69.8845 59.9693 69.2688 60.8801 68.6554 61.8315C68.5235 62.036 68.3913 62.2433 68.2595 62.4497C67.7943 63.1787 67.3348 63.8987 66.9176 64.46C66.6499 64.8201 66.37 65.1565 66.0871 65.4019C65.838 65.6179 65.4142 65.9169 64.8939 65.8426C64.8729 65.8396 64.8521 65.8357 64.8314 65.8309C64.253 65.6974 64.0202 65.1715 63.9232 64.8798C63.809 64.536 63.75 64.1125 63.7136 63.6837C63.6625 63.0807 63.6483 62.3386 63.6339 61.5843C63.6279 61.2666 63.6218 60.9466 63.6128 60.634C63.5815 59.5394 63.5162 58.5068 63.3285 57.7233C63.1241 56.8704 62.8616 56.6636 62.7181 56.6277C62.6919 56.6212 62.6661 56.6132 62.6407 56.6039C62.6249 56.598 62.5425 56.5745 62.3382 56.6484C62.133 56.7228 61.8674 56.8742 61.5433 57.1223C60.8961 57.6176 60.1377 58.4026 59.3241 59.3703C57.7031 61.2983 55.9736 63.8168 54.6217 65.8197C54.3899 66.163 53.9237 66.2535 53.5804 66.0217C53.2371 65.79 53.1466 65.3238 53.3784 64.9805C54.7264 62.9834 56.497 60.4019 58.176 58.405C59.0123 57.4102 59.8539 56.5264 60.6317 55.9311C61.0201 55.6338 61.4233 55.3845 61.8274 55.2381C62.221 55.0956 62.6734 55.0309 63.1198 55.1824C64.149 55.4621 64.5785 56.5029 64.7872 57.3738C65.0151 58.3247 65.081 59.4983 65.1122 60.5912C65.1223 60.9444 65.1288 61.2877 65.1351 61.6172C65.1489 62.3446 65.1615 63.005 65.2083 63.5571C65.2266 63.7738 65.2491 63.9549 65.2748 64.1024C65.4009 63.9677 65.5471 63.7893 65.7137 63.5652C66.0959 63.051 66.5147 62.3949 66.974 61.6755C67.1106 61.4615 67.2508 61.2419 67.3947 61.0187C68.0063 60.0701 68.6781 59.0684 69.362 58.3011C69.7047 57.9165 70.0721 57.5659 70.4594 57.307C70.8443 57.0498 71.2987 56.8501 71.8 56.8501C72.3267 56.8501 72.7441 57.0909 73.0437 57.4336C73.3228 57.7527 73.504 58.1612 73.6337 58.5607C73.8846 59.3337 74.02 60.3339 74.1447 61.2553C74.1484 61.2826 74.152 61.3098 74.1557 61.3369C74.2897 62.326 74.4166 63.2302 74.6367 63.9073C74.8752 64.6412 75.1025 64.7441 75.197 64.7564L75.2061 64.7576L75.2061 64.7576C75.4361 64.7905 76.1476 64.7262 77.3985 62.8253C78.6191 60.9705 80.1947 57.5946 82.1891 51.6611C82.3211 51.2685 82.7464 51.0572 83.139 51.1892ZM64.9691 64.3667C64.9691 64.3666 64.9701 64.3662 64.972 64.3654C64.97 64.3664 64.9691 64.3667 64.9691 64.3667ZM65.3811 64.4942C65.3872 64.5026 65.39 64.508 65.3898 64.5086C65.3896 64.5092 65.3865 64.505 65.3811 64.4942Z" fill="black"></path>
<path fill-rule="evenodd" clip-rule="evenodd" d="M54.1556 83.845C54.5726 84.2071 54.6172 84.8387 54.2551 85.2557C48.5243 91.8562 44.9982 95.3354 38.2534 101.157C37.8353 101.518 37.2038 101.472 36.843 101.054C36.4821 100.635 36.5285 100.004 36.9466 99.6431C43.6236 93.8799 47.0809 90.468 52.7449 83.9445C53.107 83.5275 53.7386 83.4829 54.1556 83.845Z" fill="black"></path>
<path fill-rule="evenodd" clip-rule="evenodd" d="M85.8626 83.991C86.199 83.7493 86.6676 83.8262 86.9092 84.1627C90.2752 88.85 92.4416 91.0348 96.8375 94.1909C97.1739 94.4325 97.2509 94.9011 97.0093 95.2376C96.7677 95.574 96.2991 95.651 95.9626 95.4094C91.4264 92.1525 89.146 89.8491 85.6908 85.0376C85.4492 84.7012 85.5261 84.2326 85.8626 83.991Z" fill="black"></path>
<path fill-rule="evenodd" clip-rule="evenodd" d="M69.9143 83.6067C70.463 83.6699 70.8566 84.1658 70.7935 84.7145C69.3894 96.916 69.3962 103.513 70.7927 114.979C70.8595 115.528 70.4692 116.026 69.9209 116.093C69.3727 116.16 68.8741 115.769 68.8074 115.221C67.3908 103.591 67.3855 96.8351 68.8066 84.4859C68.8697 83.9372 69.3657 83.5436 69.9143 83.6067Z" fill="black"></path>
<path d="M28 47C38.5 47 47 38.5 47 28C47 17.5 38.5 9 28 9C17.5 9 9 17.5 9 28C9 38.5 17.5 47 28 47Z" fill="black"></path>
<path fill-rule="evenodd" clip-rule="evenodd" d="M27.5624 13.7599C27.8053 13.6286 28.1087 13.7192 28.2399 13.9622C28.7227 14.8562 28.9828 15.6141 28.9742 16.4052C28.9656 17.1911 28.6923 17.9441 28.2461 18.8256C28.1214 19.072 27.8205 19.1706 27.5742 19.0459C27.3278 18.9212 27.2292 18.6204 27.3539 18.374C27.7775 17.5371 27.9682 16.9494 27.9742 16.3944C27.9802 15.8447 27.8053 15.2618 27.36 14.4374C27.2288 14.1944 27.3194 13.8911 27.5624 13.7599Z" fill="#FFFFFF"></path>
<path fill-rule="evenodd" clip-rule="evenodd" d="M17.285 18.2207C17.439 17.9915 17.7496 17.9305 17.9788 18.0846C19.5753 19.1575 20.282 19.8936 21.2184 21.326C21.3695 21.5571 21.3047 21.8669 21.0736 22.0181C20.8424 22.1692 20.5326 22.1043 20.3814 21.8732C19.52 20.5555 18.9092 19.9147 17.421 18.9146C17.1919 18.7605 17.1309 18.4499 17.285 18.2207Z" fill="#FFFFFF"></path>
<path fill-rule="evenodd" clip-rule="evenodd" d="M18.5931 28.6174C18.6386 28.8898 18.4547 29.1475 18.1823 29.193C16.4047 29.4897 15.3872 29.4643 13.6242 29.194C13.3512 29.1522 13.1639 28.897 13.2057 28.624C13.2476 28.3511 13.5028 28.1637 13.7757 28.2056C15.4491 28.4621 16.3589 28.4836 18.0176 28.2066C18.29 28.1611 18.5477 28.3451 18.5931 28.6174Z" fill="#FFFFFF"></path>
<path fill-rule="evenodd" clip-rule="evenodd" d="M21.3794 35.2851C21.6084 35.4395 21.6689 35.7502 21.5146 35.9792C20.5293 37.4411 19.8191 38.1916 18.2947 39.3037C18.0716 39.4664 17.7588 39.4175 17.596 39.1944C17.4333 38.9713 17.4822 38.6586 17.7053 38.4958C19.1365 37.4517 19.7654 36.7853 20.6853 35.4203C20.8397 35.1913 21.1504 35.1308 21.3794 35.2851Z" fill="#FFFFFF"></path>
<path fill-rule="evenodd" clip-rule="evenodd" d="M34.9585 34.9622C35.2003 34.8288 35.5044 34.9167 35.6378 35.1585C36.0237 35.8581 36.379 36.3433 36.814 36.7696C37.2538 37.2007 37.7917 37.5881 38.5668 38.0771C38.8003 38.2245 38.8702 38.5332 38.7229 38.7668C38.5755 39.0003 38.2667 39.0702 38.0332 38.9229C37.2399 38.4224 36.6306 37.9901 36.114 37.4838C35.5926 36.9727 35.182 36.4027 34.7622 35.6415C34.6288 35.3997 34.7167 35.0955 34.9585 34.9622Z" fill="#FFFFFF"></path>
<path fill-rule="evenodd" clip-rule="evenodd" d="M37.5074 28.214C37.5549 27.9419 37.8139 27.7599 38.0859 27.8073C39.743 28.0964 40.6511 28.0823 42.3184 27.8066C42.5908 27.7615 42.8482 27.9459 42.8933 28.2183C42.9383 28.4908 42.754 28.7481 42.4815 28.7932C40.7132 29.0856 39.6915 29.1026 37.914 28.7924C37.642 28.745 37.4599 28.486 37.5074 28.214Z" fill="#FFFFFF"></path>
<path fill-rule="evenodd" clip-rule="evenodd" d="M38.3021 17.9015C38.5221 18.0684 38.5652 18.382 38.3983 18.602C37.3043 20.044 36.6108 20.7553 35.1975 21.8017C34.9755 21.966 34.6624 21.9193 34.4981 21.6974C34.3338 21.4754 34.3805 21.1623 34.6024 20.998C35.931 20.0143 36.5584 19.3727 37.6016 17.9976C37.7685 17.7776 38.0821 17.7346 38.3021 17.9015Z" fill="#FFFFFF"></path>
<path fill-rule="evenodd" clip-rule="evenodd" d="M28.0909 18.0001C28.1003 17.9999 28.1098 18 28.1192 18.0004C30.8359 18.1049 33.3522 19.1505 35.2433 20.9365C35.2578 20.9502 35.2714 20.9647 35.2842 20.98C37.4413 23.5698 38.5969 25.6984 38.5 28.5088C38.4961 33.0222 35.5574 37.0096 31.3545 38.3755L31.3437 38.379L31.3436 38.3789C30.3077 38.6897 29.1586 38.9 28 38.9C26.8425 38.9 25.6947 38.6901 24.6595 38.3799C23.1749 37.955 21.9134 37.1135 20.8728 36.0799C19.1877 34.8196 18.0245 32.2539 17.6032 28.5566C17.601 28.5378 17.6 28.5189 17.6 28.5C17.6 25.6709 18.6502 23.1426 20.5464 21.2464C20.5691 21.2238 20.5939 21.2034 20.6204 21.1855C23.2528 19.4102 25.3697 18.0496 28.0909 18.0001ZM21.22 21.9873C19.5435 23.681 18.6069 25.9294 18.6 28.4718C19.015 32.0744 20.1333 34.2946 21.4963 35.2973C21.5166 35.3122 21.5357 35.3286 21.5535 35.3464C22.5071 36.3001 23.6358 37.0474 24.9373 37.4192L24.9437 37.421L24.9436 37.4211C25.9077 37.7103 26.9586 37.9 28 37.9C29.0393 37.9 30.0883 37.711 31.0508 37.4227C34.8423 36.1879 37.5 32.5811 37.5 28.5C37.5 28.4941 37.5001 28.4882 37.5003 28.4823C37.5868 26.0393 36.6211 24.1521 34.5351 21.6432C32.8318 20.0446 30.5623 19.0984 28.095 19.0002C25.7317 19.0476 23.8604 20.2076 21.22 21.9873Z" fill="#FFFFFF"></path>
<path fill-rule="evenodd" clip-rule="evenodd" d="M29.896 24.1948C30.0645 24.4135 30.0239 24.7275 29.8052 24.8961C29.0205 25.5008 28.499 26.0043 28.0825 26.567C27.7785 26.9777 27.5219 27.4317 27.2606 28H29.4999C29.6796 28 29.8455 28.0965 29.9345 28.2526C30.0234 28.4088 30.0216 28.6007 29.9299 28.7552C28.9179 30.4603 28.2836 31.3472 26.9632 32.7436C26.7735 32.9442 26.4571 32.9531 26.2564 32.7633C26.0558 32.5736 26.0469 32.2571 26.2366 32.0565C27.2896 30.9429 27.8756 30.184 28.6123 29H26.4999C26.3333 29 26.1776 28.917 26.0847 28.7786C25.9919 28.6402 25.9741 28.4646 26.0373 28.3104C26.4248 27.365 26.79 26.6325 27.2787 25.9721C27.7688 25.3099 28.3665 24.7423 29.1947 24.104C29.4134 23.9354 29.7274 23.9761 29.896 24.1948Z" fill="#FFFFFF"></path>
<path d="M108.9 84.6001H28.4C25.4 84.6001 23 82.2001 23 79.2001V73.6001H114.4V79.2001C114.4 82.2001 111.9 84.6001 108.9 84.6001Z" fill="black"></path>
<path fill-rule="evenodd" clip-rule="evenodd" d="M101.908 33.1444C85.769 31.1519 69.4278 31.1515 53.2828 32.9454C52.8711 32.9912 52.5003 32.6945 52.4545 32.2828C52.4088 31.8712 52.7055 31.5003 53.1171 31.4546C69.3722 29.6485 85.8309 29.6481 102.092 31.6557C102.503 31.7064 102.795 32.0808 102.744 32.4919C102.694 32.903 102.319 33.1951 101.908 33.1444Z" fill="black"></path>
<path fill-rule="evenodd" clip-rule="evenodd" d="M99.3228 45.4462C84.864 43.9505 70.2036 43.6512 55.641 44.4491C55.2274 44.4718 54.8738 44.1549 54.8511 43.7413C54.8285 43.3277 55.1454 42.974 55.559 42.9513C70.1964 42.1493 84.936 42.4499 99.4772 43.9542C99.8892 43.9968 100.189 44.3654 100.146 44.7774C100.103 45.1894 99.7348 45.4889 99.3228 45.4462Z" fill="black"></path>
</svg>