<?xml version="1.0" encoding="UTF-8"?>
<svg xmlns="http://www.w3.org/2000/svg" width="1396" height="417" viewBox="0 0 1396 417" fill="none">
  <g clip-path="url(#clip0_315_4882)">
    <path d="M1019.27 293.962L1025.02 296.458C1025.33 296.592 1025.53 296.897 1025.53 297.234V312.476C1025.53 313.098 1024.88 313.507 1024.32 313.239L1018.57 310.493C1018.28 310.352 1018.09 310.056 1018.09 309.73V294.737C1018.09 294.128 1018.71 293.719 1019.27 293.962Z" stroke="black" stroke-width="1.69111"></path>
    <path d="M1036.84 303.713L1042.93 306.225C1043.25 306.356 1043.46 306.664 1043.46 307.007V322.004C1043.46 322.619 1042.82 323.028 1042.26 322.774L1036.17 320.011C1035.87 319.874 1035.68 319.573 1035.68 319.241V304.495C1035.68 303.893 1036.29 303.484 1036.84 303.713Z" stroke="black" stroke-width="1.69111"></path>
    <path d="M1019.27 265.196L1025.02 267.656C1025.33 267.789 1025.53 268.095 1025.53 268.434V283.407C1025.53 284.026 1024.88 284.435 1024.33 284.172L1018.58 281.466C1018.28 281.326 1018.09 281.028 1018.09 280.7V265.973C1018.09 265.367 1018.71 264.957 1019.27 265.196Z" stroke="black" stroke-width="1.69111"></path>
    <path d="M1036.84 274.626L1042.93 277.138C1043.25 277.269 1043.46 277.577 1043.46 277.92V292.917C1043.46 293.532 1042.82 293.941 1042.26 293.687L1036.17 290.924C1035.87 290.787 1035.68 290.486 1035.68 290.154V275.408C1035.68 274.806 1036.29 274.397 1036.84 274.626Z" stroke="black" stroke-width="1.69111"></path>
    <path d="M1025.7 330.906V345.644C1025.7 346.041 1025.93 346.403 1026.29 346.567L1032.38 349.341C1033.05 349.647 1033.82 349.156 1033.82 348.417V333.534C1033.82 333.129 1033.58 332.763 1033.2 332.602L1027.12 329.975C1026.45 329.686 1025.7 330.177 1025.7 330.906Z" fill="black"></path>
    <path d="M1052.76 359.127L1008.34 337.255C1007.99 337.084 1007.77 336.731 1007.77 336.345V245.823" stroke="black" stroke-width="1.69111" stroke-linecap="round"></path>
    <path d="M1051.81 359.168V267.468L1006.64 246.693C1005.78 246.295 1005.89 245.028 1006.81 244.789L1047.02 234.399C1047.21 234.35 1047.41 234.358 1047.6 234.42L1088.61 248.248V341.564C1088.61 341.947 1088.39 342.296 1088.05 342.469L1053.29 360.074C1052.61 360.416 1051.81 359.925 1051.81 359.168Z" fill="black"></path>
    <path d="M1115.33 336.364L1088.26 329.025V341.918L1062.56 355.407L1115.33 336.364Z" fill="black"></path>
    <path d="M35 417C97.4 365.01 190.35 309.644 321 275" stroke="black" stroke-width="2" stroke-linecap="round"></path>
    <path d="M470.848 232.294C511.81 223.506 548.642 218.302 592.343 214.876" stroke="black" stroke-width="2" stroke-linecap="round"></path>
    <path d="M743.245 218.565C701.305 213.254 702.012 213.219 655.084 213.254" stroke="black" stroke-width="2" stroke-linecap="round"></path>
    <path d="M880 240.46C929.079 251.104 945.378 254.387 996.274 274.065" stroke="black" stroke-width="2" stroke-linecap="round"></path>
    <path d="M1262 417C1201.89 376.91 1162.7 351.787 1103 318L1262 417Z" stroke="black" stroke-width="2" stroke-linecap="round"></path>
    <path d="M314.252 297.16C325.413 317.341 370.092 345.593 459.518 297.16C481.671 285.162 478.796 280.418 508.729 278.389C532.503 276.777 550.049 252.402 556.08 242.199" stroke="black" stroke-width="2" stroke-linecap="round"></path>
    <path d="M792.158 243.891C796.443 253.699 815.022 272.775 855.067 270.61C895.113 268.445 925.756 284.815 936.071 293.271" stroke="black" stroke-width="2" stroke-linecap="round"></path>
    <path d="M772.879 257.081C774.57 261.591 780.523 271.76 790.805 276.36" stroke="black" stroke-width="2" stroke-linecap="round"></path>
    <path d="M790.805 262.493C796.105 270.047 818.167 284.545 864.03 282.11" stroke="black" stroke-width="2" stroke-linecap="round"></path>
    <path d="M310.869 313.226C311.433 316.833 317.363 325.368 336.574 330.644" stroke="black" stroke-width="2" stroke-linecap="round"></path>
    <path d="M325.074 340.283C328.626 343.496 332.177 344.173 336.574 344.849" stroke="black" stroke-width="2" stroke-linecap="round"></path>
    <path d="M466.113 318.468C472.99 312.437 492.258 299.494 514.31 295.977C536.362 292.459 542.663 281.884 543.059 277.036" stroke="black" stroke-width="2" stroke-linecap="round"></path>
    <path d="M457.148 337.071C459.009 337.071 477.611 330.814 488.434 318.469" stroke="black" stroke-width="2" stroke-linecap="round"></path>
    <path d="M996 59.8306C1004.97 61.6705 1000.77 74.018 1007.34 77.3038C1015.19 81.2258 1017.89 59.1437 1016.87 49.7709C1016.57 45.6615 1011.79 43.8334 1011.14 49.7709C1010.46 56.0781 1018.29 80.5348 1027.26 71.0974L1033.24 64.1686C1034.91 62.1183 1038.19 59.2702 1040.96 64.1686C1043.73 69.0674 1048.15 67.4487 1050.01 66.0268L1055.87 61.7707" stroke="black" stroke-width="1.69111" stroke-linecap="round"></path>
    <path d="M1051.6 42.9365L1098.42 35.0052C1098.76 34.9487 1098.96 35.3634 1098.71 35.59L1076.88 55.2477C1076.85 55.2701 1076.83 55.2883 1076.8 55.3012C1074.9 56.0821 1067.42 53.119 1063.56 51.3826C1063.37 51.297 1063.15 51.4005 1063.09 51.6007C1062.17 54.8622 1061.04 57.8893 1060.48 59.2499C1060.42 59.397 1060.26 59.483 1060.14 59.3795C1059.02 58.4165 1058.88 52.2687 1058.96 48.8672C1058.96 48.6934 1058.84 48.5459 1058.67 48.5155C1055.8 48.0031 1051.86 45.4441 1050.19 44.1869" stroke="black" stroke-width="1.69111" stroke-linecap="round"></path>
    <path d="M1063.38 51.3836C1068.29 49.0563 1080.71 43.2278 1091.12 38.5312" stroke="black" stroke-width="1.69111" stroke-linecap="round"></path>
    <path d="M1060.34 59.5014L1069.47 54.0898" stroke="black" stroke-width="1.69111" stroke-linecap="round"></path>
    <path d="M1062.37 46.6485L1074.88 42.5898" stroke="black" stroke-width="1.69111" stroke-linecap="round"></path>
    <path d="M515.589 85.556C516.532 82.788 515.673 80.9251 514.831 80.5703C509.791 85.2547 502.145 83.5159 499.309 80.6769C498.3 81.6137 498.889 84.3848 499.309 85.2367C504.77 91.369 512.541 87.9337 515.589 85.556Z" fill="black"></path>
    <path fill-rule="evenodd" clip-rule="evenodd" d="M480.177 59.9967L480.074 60.1313C480.058 60.1534 480.041 60.1752 480.025 60.1966C480.197 60.2094 480.367 60.2393 480.532 60.2843L480.535 60.2664C480.514 60.2557 480.493 60.2457 480.474 60.2324C480.367 60.1589 480.268 60.0799 480.177 59.9967Z" fill="black"></path>
    <path fill-rule="evenodd" clip-rule="evenodd" d="M484.698 53.9542C485.718 54.1721 486.566 54.4634 487.433 55.0564L487.507 55.108C488.271 55.6447 489.523 56.6116 489.241 57.6793C489.161 57.9831 488.887 58.2736 488.537 58.1949C487.578 57.98 487.174 56.9199 486.611 56.2109C486.044 55.4964 485.327 54.7412 484.591 54.1968C484.487 54.12 484.56 53.9391 484.684 53.952L484.698 53.9542Z" fill="black"></path>
    <path fill-rule="evenodd" clip-rule="evenodd" d="M481.99 38.2791C481.735 38.2484 481.782 38.5083 481.944 38.3223C481.958 38.3072 481.974 38.2925 481.99 38.2791Z" fill="black"></path>
    <path fill-rule="evenodd" clip-rule="evenodd" d="M495.949 9.50052C495.762 8.85597 495.283 8.36342 494.578 8.3993C493.926 8.43314 493.325 8.93393 493.272 9.63236L493.263 9.74136C493.242 9.95878 493.212 10.1727 493.174 10.3832C492.372 10.2936 491.552 10.308 490.76 10.4022C490.423 10.4424 490.09 10.5039 489.758 10.5784C489.358 10.5692 488.954 10.6224 488.551 10.7479C488.196 10.8595 487.863 11.0247 487.56 11.2323C487.381 11.2938 487.203 11.356 487.024 11.4183C486.715 11.5261 486.406 11.6339 486.097 11.7376L484.979 11.6822L484.93 11.6803C484.735 11.6756 484.559 11.705 484.401 11.7619C484.093 11.4514 483.759 11.1652 483.407 10.9095C482.764 10.4429 482.009 10.6547 481.511 11.216C481.194 11.5724 480.949 11.9756 480.769 12.4052C480.261 12.5141 479.873 12.9691 479.769 13.4762C478.422 13.5035 477.11 14.0798 476.295 15.3209C476.272 15.357 476.252 15.3932 476.231 15.4295C475.752 15.7857 475.328 16.2231 474.983 16.7208C474.268 16.8507 473.587 17.0979 472.968 17.5632C471.985 18.3021 471.393 19.6949 471.657 20.9257C471.691 21.078 471.734 21.2208 471.787 21.3564C471.022 22.0861 470.386 22.9614 469.908 23.9307C469.74 24.2673 469.775 24.6618 469.937 25.0027C469.332 26.143 469.266 27.5717 470.067 28.6185C469.959 28.796 469.857 28.9776 469.762 29.1622C469.755 29.1724 469.748 29.1825 469.741 29.1927C469.711 29.2348 469.682 29.2771 469.655 29.3212C468.777 30.6989 468.565 32.249 469.048 33.8056C469.174 34.2104 469.724 34.6199 470.144 34.6055C470.921 34.5785 471.687 34.4912 472.437 34.3382C471.922 34.7489 471.463 35.235 471.076 35.789C470.499 36.6145 470.983 37.9153 472.03 37.9774C473.488 38.0638 474.941 37.8868 476.321 37.4359C476.508 37.6213 476.729 37.76 476.971 37.8533C476.992 38.9582 478.195 39.6957 479.116 38.9528C479.48 38.6606 479.844 38.3683 480.206 38.0747C480.432 38.4862 480.859 38.8169 481.273 38.8043C481.504 38.7975 481.73 38.805 481.951 38.8262C481.779 38.976 481.616 39.1425 481.465 39.3311C481.138 39.7374 481.55 40.3114 482.016 40.2415C482.649 40.1463 483.262 39.9745 483.849 39.7279C483.886 39.7674 483.93 39.7987 483.978 39.8224C483.855 40.0272 483.76 40.2599 483.701 40.5161L483.697 40.5366C483.605 40.5066 483.509 40.4828 483.404 40.4712C482.537 40.3726 481.723 41.0926 481.603 41.9541C481.576 42.1572 481.588 42.3527 481.631 42.5362C481.236 43.673 481.06 44.9226 481.338 46.0031C481.274 46.1223 481.263 46.2718 481.292 46.4049C481.025 46.6458 480.83 46.9848 480.755 47.3757C480.627 48.0401 480.893 48.6137 481.284 49.1077C481.3 49.1712 481.317 49.2344 481.338 49.2971C481.329 49.3311 481.323 49.3654 481.317 49.3999C481.111 49.6045 480.593 49.7172 480.082 49.8286C479.345 49.9889 478.621 50.1465 478.857 50.5718C478.875 50.6029 478.893 50.6319 478.912 50.6602C478.905 50.8677 478.93 51.0772 478.987 51.2833C478.971 51.3172 478.954 51.351 478.937 51.3845C478.902 51.4528 478.868 51.5203 478.845 51.5873C478.743 51.8877 478.703 52.1955 478.713 52.5112C478.716 52.6252 478.7 52.9654 478.68 53.4012C478.628 54.488 478.549 56.169 478.674 56.4168L478.679 56.5212C478.61 56.6848 478.58 56.8759 478.604 57.0924C478.572 57.1065 478.539 57.1206 478.506 57.1336C477.6 56.646 476.387 56.7009 475.623 57.4376C474.873 58.1583 475.185 59.4497 476.251 59.5906C476.704 59.6494 477.186 59.6263 477.654 59.5248L477.784 59.6416C478.13 59.9431 478.554 60.1409 478.993 60.1784L478.993 60.1785C478.99 60.3627 478.987 60.5469 478.989 60.7314C478.974 61.3813 481.845 67.1958 481.845 67.1958C481.845 67.1958 481.516 68.4616 480.755 69.101C480.064 69.6835 480.766 70.9436 481.6 70.4908L481.691 70.4423C482.062 70.2507 482.453 70.1025 482.844 69.9546C483.422 69.7355 484 69.517 484.506 69.1585C484.83 69.438 485.045 69.6156 485.204 69.7465C485.617 70.0875 485.647 70.112 486.222 70.7949C486.38 71.1306 486.563 71.4576 486.743 71.7792C486.829 71.9329 486.914 72.0853 486.995 72.2368C487.095 72.4214 487.293 72.5764 487.505 72.6294C487.818 73.1823 488.091 73.7614 488.316 74.3636C488.625 75.1941 490.023 74.7765 489.797 73.8974L489.721 73.5989C489.781 73.5444 489.835 73.4836 489.885 73.4177C489.98 73.6531 490.086 73.8837 490.2 74.1035C491.006 75.6406 492.176 77.4252 494.012 77.6384C494.599 77.7061 495.076 77.0462 494.815 76.4973C494.484 75.8021 494.036 75.3292 493.518 74.8154L493.292 74.592C492.755 74.0593 492.253 73.4918 491.802 72.8807C491.359 72.2786 490.972 71.6635 490.596 71.0157C490.572 70.9744 490.536 70.8975 490.491 70.8007C490.397 70.5991 490.264 70.3113 490.113 70.0791C490.448 69.9084 490.646 69.6609 490.875 69.2875C491.139 68.8594 490.747 68.4114 490.298 68.5647C490.194 68.6003 490.08 68.6143 489.965 68.6284C489.86 68.6414 489.754 68.6544 489.654 68.6843C489.629 68.6918 489.604 68.6995 489.58 68.7071C489.461 68.7437 489.343 68.7802 489.22 68.8042C488.87 68.8711 488.505 68.8538 488.161 68.7618C487.409 68.5598 484.936 67.3401 484.506 66.6985C481.6 62.7204 481.482 59.639 481.951 58.0057C481.999 57.8404 482.049 57.6517 482.102 57.4469C482.544 55.7685 483.272 53.0002 485.5 53.0002C488 53.0002 490.791 56.3138 490.934 57.8045C490.945 57.9196 491.106 57.8998 491.124 57.7982C491.197 57.3787 491.187 56.9693 491.109 56.581C491.579 56.9672 492.128 57.2521 492.735 57.4057C492.756 57.4113 492.776 57.4145 492.796 57.4177L492.796 57.4177C493.142 57.6006 493.521 57.7123 493.881 57.7338C494.035 57.7436 494.186 57.6333 494.2 57.4683C494.452 54.4264 494.153 49.3518 493.576 46.3537L493.883 46.6854C493.961 46.7711 494.04 46.8599 494.119 46.9498C494.534 47.4188 494.975 47.9176 495.541 48.1561C496.826 48.6996 497.742 47.577 497.762 46.3483C497.772 45.7709 497.663 45.2039 497.555 44.6398C497.542 44.5759 497.53 44.5119 497.518 44.448L497.483 44.2598C497.322 43.3768 497.161 42.4939 497.001 41.6121L497.001 41.612C497.003 41.5867 497.006 41.5614 497.007 41.5372C497.871 42.1344 498.99 42.5621 499.862 41.8678C500.401 41.4394 500.593 40.7487 500.723 40.0924L500.75 39.9524C500.816 39.5997 500.871 39.2423 500.916 38.884C501.474 39.6339 502.123 40.3047 502.931 40.7625C504.33 41.5548 505.983 41.4295 507.252 40.4195C507.261 40.4121 507.271 40.4037 507.28 40.3955C507.286 40.3902 507.292 40.3849 507.298 40.38C507.635 40.5038 507.982 40.6053 508.331 40.699C509.654 41.0543 511.069 41.4144 512.434 41.532C513.671 41.6378 514.424 41.2306 515.528 40.5936C516.227 40.1922 516.891 39.5605 517.268 38.8043L517.292 38.8161L517.279 38.8432C517.151 39.1155 517.162 39.4247 517.385 39.7456C517.579 40.0271 517.922 40.1712 518.275 40.2013C518.333 40.3282 518.411 40.4524 518.532 40.5845C518.786 40.865 519.065 41.0993 519.39 41.287C520.087 41.6927 520.814 41.8073 521.608 41.7437C521.712 41.7357 521.812 41.6981 521.903 41.641C522.071 42.0875 522.018 42.4339 521.962 42.7982C521.917 43.0941 521.87 43.4017 521.937 43.7845C521.976 44.0025 522.001 44.2241 522.026 44.4457C522.037 44.5432 522.047 44.6407 522.059 44.738C522.043 45.3311 522.164 46.2857 522.283 47.2282C522.392 48.0912 522.5 48.9441 522.5 49.5002C522.381 51.5511 522.433 52.985 522.485 54.42C522.538 55.8961 522.591 57.3734 522.459 59.5248C521.561 74.0929 513.884 80.7897 507.19 81.0002C504.808 81.0751 502.425 79.9031 500.747 79.0781C500.424 78.9193 500.128 78.7733 499.862 78.6515C498.907 78.2137 498.233 79.3376 499.6 80.0611C499.674 80.1006 499.753 80.1426 499.836 80.1868C501.27 80.952 503.916 82.3641 507.19 82.5002C513.789 82.7747 520.135 75.6815 522.038 69.1849C523.137 65.4343 523.855 61.9441 524.044 58.0626L524.061 57.7303C524.175 55.535 524.08 53.1819 523.987 50.895C523.951 50.0159 523.916 49.1466 523.894 48.2997C524.195 48.321 524.388 47.8227 524.476 47.4838C524.546 47.2154 524.629 47.0402 524.709 46.8682C524.79 46.6963 524.87 46.5276 524.933 46.2724C524.992 46.04 524.876 45.7361 524.763 45.4373C524.68 45.2183 524.598 45.0021 524.586 44.8189C524.567 44.5122 524.522 44.2063 524.476 43.9027C524.402 43.4205 524.409 42.9985 524.415 42.5929C524.424 41.9886 524.433 41.4208 524.174 40.7444C523.852 39.9033 523.476 39.0811 523.048 38.2896C522.86 37.646 522.509 37.0155 522.174 36.4116C522.147 36.3625 522.12 36.3135 522.093 36.2646L522 36.0963L522.072 35.8454L522.083 35.8066C522.242 35.2002 522.101 34.6276 521.61 34.228C521.153 33.8572 520.697 33.4857 520.242 33.1141C519.418 32.4424 518.594 31.7708 517.766 31.1041C517.214 30.6595 517.085 30.6276 516.41 30.538C515.878 29.6337 514.95 29.0067 513.849 28.7077C513.501 28.6127 513.149 28.54 512.798 28.4674C512.27 28.3583 511.744 28.2495 511.23 28.066C510.932 27.9593 510.638 27.8421 510.344 27.7248C509.837 27.5227 509.33 27.3205 508.804 27.1729C507.513 26.8103 506.05 26.6489 504.765 27.1362C503.764 27.0368 502.756 27.0066 501.745 27.0576C501.46 26.5773 501.116 26.1352 500.726 25.7384C500.783 25.6711 500.842 25.6052 500.901 25.5392L500.901 25.5387C501.188 25.6434 501.517 25.6373 501.852 25.4678C502.991 24.8913 503.774 23.8692 503.836 22.5551C503.862 21.9925 503.611 21.5924 503.252 21.3873C503.427 20.9665 503.641 20.5612 503.89 20.1713C504.102 19.9113 504.303 19.6397 504.486 19.3501C505.441 17.8487 503.411 16.3455 502.299 17.7251C502.11 17.9594 501.931 18.203 501.763 18.4524C501.528 18.7322 501.271 18.991 500.994 19.2246L501.197 18.0076L501.202 17.973C501.262 17.5226 501.023 17.0576 500.673 16.7759L500.956 15.9171C501.002 15.7768 501.051 15.6349 501.1 15.4917C501.508 14.3043 501.946 13.0263 501.36 11.8332C500.44 9.96119 497.985 9.48626 496.161 10.1793C496.085 9.96803 496.017 9.75403 495.958 9.53519L495.949 9.50052ZM491.186 25.7893C493.216 24.6288 495.865 23.5791 498.289 23.8865C498.815 24.1861 499.286 24.5548 499.685 24.9906C497.736 25.3044 495.848 25.958 494.105 26.8943C491.806 28.1299 489.806 29.7319 487.936 31.5394C487.258 32.1939 486.614 32.8805 486.007 33.5982L485.999 33.6192C485.799 34.0693 485.511 34.4786 485.194 34.8597C485.138 34.7806 485.062 34.7158 484.965 34.6763C484.664 34.5537 484.403 34.3529 484.218 34.0998C484.301 33.9061 484.404 33.7219 484.529 33.5554L484.593 33.3935C484.667 33.2045 484.738 33.0146 484.808 32.825C484.934 32.4847 485.061 32.1449 485.209 31.8111C485.56 31.024 485.951 30.2492 486.383 29.4979C487.833 28.0785 489.42 26.7989 491.186 25.7893Z" fill="black"></path>
    <path d="M492 67.0012C493.902 78.5636 506.672 86.8777 515.889 77.5114C525.102 68.145 523.258 51.0004 522.274 43" stroke="black" stroke-width="1.69111" stroke-linecap="round"></path>
    <path d="M484.715 58.0791C483.573 60.9188 484.863 67.3802 492.325 67.3802" stroke="black" stroke-width="1.69111" stroke-linecap="round"></path>
    <path d="M488.313 60.2773C488.163 60.8357 488.283 62.1585 489.957 62.9831" stroke="black" stroke-width="1.69111" stroke-linecap="round"></path>
    <path d="M522.596 65.8584C525.088 64.8086 526.34 61.0908 525.663 54.8662" stroke="black" stroke-width="1.69111" stroke-linecap="round"></path>
    <path d="M509.574 72.6456C511.969 73.341 511.817 71.4273 513.633 69.748" stroke="black" stroke-width="1.69111" stroke-linecap="round"></path>
    <path d="M516.386 61.6967C517.167 61.7717 517.898 60.7987 518.02 59.5236C518.142 58.2485 517.611 57.154 516.833 57.0793C516.051 57.0042 515.321 57.9772 515.199 59.2523C515.077 60.5274 515.608 61.6219 516.386 61.6967Z" fill="black"></path>
    <path d="M502.176 61.7052C502.96 61.8006 503.719 60.861 503.872 59.6066C504.024 58.3521 503.512 57.2583 502.728 57.1629C501.945 57.0675 501.185 58.0071 501.033 59.2616C500.88 60.5157 501.392 61.6098 502.176 61.7052Z" fill="black"></path>
    <path d="M498.414 54.8657C498.739 53.8656 500.141 52.0152 503.149 52.6152" stroke="black" stroke-width="1.69111" stroke-linecap="round"></path>
    <path d="M512.957 52.8366C513.674 52.3262 515.626 51.6115 517.692 52.8366" stroke="black" stroke-width="1.69111" stroke-linecap="round"></path>
    <path d="M510.427 56.8955C510.66 58.9424 510.822 63.0931 509.574 63.3217" stroke="black" stroke-width="1.69111" stroke-linecap="round"></path>
    <path d="M566.361 115.269C559.089 107.321 539.675 88.8878 520.193 78.7412" stroke="black" stroke-width="1.69111" stroke-linecap="round"></path>
    <path d="M595.279 179.362C551.716 244.842 475.548 218.765 448.152 192.553C430.565 174.345 406.889 134.04 424.984 94.4686C438.043 65.9092 462.678 62.6097 482 66" stroke="black" stroke-width="1.69111" stroke-linecap="round"></path>
    <path d="M573.633 137.085C550.364 132.349 527.635 145.371 519.18 152.474C536.091 156.532 549.339 164.762 553.847 168.37C556.283 166.882 561.684 165.72 564.082 165.326C578.355 172.645 608.284 185.725 623.521 192.215C628.628 193.705 636.069 178.655 631.976 174.12L573.633 137.085Z" fill="black"></path>
    <path d="M458.469 92.2705C457.736 98.8658 457.996 115.878 464.895 131.166" stroke="black" stroke-width="1.69111" stroke-linecap="round"></path>
    <path d="M453.227 135.901C456.384 140.862 467.872 152.914 488.571 161.437" stroke="black" stroke-width="1.69111" stroke-linecap="round"></path>
    <path d="M507.85 168.539C511.966 169.666 522.191 171.245 530.173 168.539" stroke="black" stroke-width="1.69111" stroke-linecap="round"></path>
    <path d="M488.57 149.261C500.634 148.303 531.017 151.054 556.046 169.723" stroke="black" stroke-width="1.69111" stroke-linecap="round"></path>
    <path d="M495.504 101.572C496.237 104.053 495.879 111.177 497.195 115.27C498.717 120.005 506.383 121.978 510.386 122.711C517.32 123.981 524.963 123.557 532.539 126.262" stroke="black" stroke-width="1.69111" stroke-linecap="round"></path>
    <path d="M497.194 84.6297C489.28 83.7842 478.337 86.49 476.056 98.5279C473.62 111.38 479.381 126.826 482.482 134.041C484.952 139.791 501.084 144.594 528.142 138.1" stroke="black" stroke-width="1.69111" stroke-linecap="round"></path>
    <path d="M528.143 138.099C529.553 135.845 532.539 130.32 532.539 126.262" stroke="black" stroke-width="1.69111" stroke-linecap="round"></path>
    <path d="M517.184 85.3057C528.345 85.3057 537.071 90.0381 543.7 100.726C550.329 111.414 559.089 119.835 562.641 122.71" stroke="black" stroke-width="1.69111" stroke-linecap="round"></path>
    <path d="M540.488 105.461C541.615 107.828 542.94 111.274 543.701 115.269C544.378 118.821 546.238 123.387 546.914 124.74" stroke="black" stroke-width="1.69111" stroke-linecap="round"></path>
    <path d="M489.924 140.636C490.431 142.383 491.784 146.047 493.813 148.753" stroke="black" stroke-width="1.69111" stroke-linecap="round"></path>
    <path fill-rule="evenodd" clip-rule="evenodd" d="M839.275 83.628C840.242 74.1204 843.865 63.4379 853.489 59.1198C874.62 51.8632 901.222 73.1901 901.879 93.9629C902.113 101.074 897.731 108.667 890.188 110.353C888.447 112.409 885.887 113.607 883.366 114.636C853.286 128.263 834.68 115.539 839.275 83.628Z" fill="white"></path>
    <path fill-rule="evenodd" clip-rule="evenodd" d="M832.778 77.4427C833.928 74.6909 835.136 71.9628 836.4 69.2583C837.631 66.6263 838.756 63.9322 840.255 61.4374C849.21 46.5366 864.436 47.119 872.231 49.4089C876.377 47.8703 880.004 48.6408 884.195 50.3325C890.981 53.0713 898.996 63.1305 901.696 67.6156C907.658 77.5182 911.117 90.5272 906.485 101.529C905.879 102.967 905.126 104.292 904.287 105.564C904.76 106.232 905.308 106.869 905.919 107.498C907.734 109.366 909.552 111.175 911.102 113.263C912.642 115.338 913.901 117.53 914.809 119.928C916.52 124.452 916.418 129.496 913.768 133.648C911.462 137.261 907.522 139.866 903.191 139.963C902.968 139.985 902.745 140.003 902.521 140.017C901.914 140.903 899.184 141.713 898.36 142.412C895.833 144.556 895.972 145.481 892.65 145.427C892.475 145.553 892.298 145.678 892.122 145.802C890.032 147.264 887.842 148.736 885.469 149.742C883.862 150.425 881.768 150.966 880.141 150.367C879.376 150.82 878.154 150.672 877.428 150.249C876.235 149.556 875.289 148.354 874.732 147.139C873.381 144.189 873.854 141.035 874.347 137.957C874.891 134.558 871.321 129.933 871.856 126.533C872.275 123.874 872.709 121.172 873.65 118.632C874.137 117.315 874.757 116.056 875.541 114.88C875.525 114.778 875.532 114.677 875.566 114.583C875.837 113.836 876.351 113.458 876.962 112.966C877.041 112.903 877.12 112.838 877.198 112.772C877.506 112.459 877.834 112.169 878.182 111.926C878.317 111.804 879.105 111.496 879.239 111.372C881.076 109.075 880.751 109.42 881.696 108.238C882.612 107.092 883.036 105.707 883.833 104.481C884.643 103.234 884.403 102.963 885.211 101.725C885.28 101.618 886.041 102.09 886.13 102.184C886.755 102.856 888.427 104.022 890.724 102.643C894.399 99.4275 894.6 96.802 894.399 91.7883C894.33 90.0655 892.562 88.4015 890.724 88.4015C889.732 88.4015 888.86 88.6092 888.524 88.8556C887.458 89.6404 886.396 90.4299 885.346 91.2352C885.251 91.3068 885.157 91.3784 885.062 91.4515C884.439 91.9294 883.704 91.4041 883.833 90.6986C884.885 84.9171 882.313 82.1362 878.124 78.3884C873.487 74.2383 864.916 75.2764 859.484 68.1873C856.841 68.6014 851.935 70.0817 849.377 73.7003C845.794 78.7712 841.59 80.6747 841.107 86.5639C840.624 92.4576 840.398 95.8505 841.567 101.725C842.644 107.141 848.617 115.363 853.927 117.678C854.059 117.735 854.192 117.791 854.325 117.845C857.074 118.964 860.104 119.367 863.057 118.946C866.325 118.479 869.089 117.151 871.856 115.494C872.016 115.401 872.235 115.615 872.112 115.76C868.379 120.169 861.332 121.42 855.833 120.008C855.576 119.941 855.321 119.87 855.067 119.793C856.176 123.277 855.782 127.04 854.039 130.325C852.99 132.301 851.442 133.986 849.585 135.292C847.537 136.729 845.023 137.858 843.562 139.93C842.223 141.829 842.515 144.031 844.636 145.239C845.17 145.545 845.345 146.474 844.789 146.857C844.576 147.003 844.363 147.151 844.146 147.296C842.901 148.131 839.51 149.658 838.968 149.699C834.161 150.063 831.073 146.554 829.163 142.48C826.921 137.699 827.769 132.01 830.608 127.647C832.885 124.146 837.235 120.777 835.733 116.179C835.197 114.537 834.027 113.11 832.887 111.817C831.587 110.345 830.181 108.959 828.938 107.439C827.703 105.929 826.619 104.296 826.05 102.439C825.219 99.7254 825.794 96.8473 826.597 94.2004C828.32 88.5182 830.487 82.9297 832.778 77.4427Z" fill="black"></path>
    <path d="M591.389 135.732L569.912 136.409L573.633 137.085L607.455 158.562C604.884 144.357 595.674 137.367 591.389 135.732Z" fill="black"></path>
    <path d="M609.486 205.575L595.111 180.547L595.619 179.87L623.522 192.046V194.921C622.372 201.823 613.071 209.433 609.486 205.575Z" fill="black"></path>
    <path d="M532.541 126.262C534.175 126.938 538.223 127.854 541.335 126.637C544.446 125.419 549.056 125.34 550.974 125.453C552.554 125.791 555.777 127.415 556.047 131.203C556.216 132.725 553.724 133.063 553.176 131.541" stroke="black" stroke-width="1.69111" stroke-linecap="round"></path>
    <path d="M547.082 128.666C548.953 128.666 552.362 129.278 553.174 131.541C553.316 131.939 553.38 132.388 553.339 132.894C552.832 134.548 550.015 133.407 548.942 132.519C548.422 131.786 546.758 131.015 545.898 130.828" stroke="black" stroke-width="1.69111" stroke-linecap="round"></path>
    <path d="M545.898 130.828C546.757 131.015 548.421 131.786 548.942 132.519C549.206 132.891 548.922 133.371 548.604 133.872C547.589 135.056 545.901 134.281 543.53 133.534C541.501 132.894 539.583 134.83 539.303 135.901" stroke="black" stroke-width="1.69111" stroke-linecap="round"></path>
    <path d="M528.818 136.916C529.099 136.972 530.07 137.153 531.693 137.423" stroke="black" stroke-width="1.69111" stroke-linecap="round"></path>
    <path d="M531.357 137.254C532.169 137.254 551.539 134.041 561.121 132.35H597.649C599.621 132.463 604.244 131.944 606.95 128.968" stroke="black" stroke-width="1.69111" stroke-linecap="round"></path>
    <path d="M606.949 129.136C610.162 120.906 617.433 102.383 620.139 94.8067C622.845 87.2306 618.448 85.5621 615.911 85.6748C610.331 85.5621 596.87 85.4042 587.67 85.6748C578.47 85.9453 575.832 90.4099 574.648 93.1156L561.796 128.967C561.515 129.869 561.356 131.673 562.98 132.349" stroke="black" stroke-width="1.69111" stroke-linecap="round"></path>
    <path d="M606.95 128.968C605.654 132.181 601.538 137.085 591.561 136.578" stroke="black" stroke-width="1.69111" stroke-linecap="round"></path>
    <path d="M531.354 137.254C531.243 139.001 533.045 141.82 541.67 140.805" stroke="black" stroke-width="1.69111" stroke-linecap="round"></path>
    <path d="M547.084 176.488C552.891 176.488 566.16 175.102 572.789 169.555" stroke="black" stroke-width="1.69111" stroke-linecap="round"></path>
    <path d="M630.596 190.481C633.163 193.071 639.298 197.945 646.891 192.522C662.28 181.53 654.501 176.964 645.707 182.544C643.847 183.725 641.175 185.656 638.605 184.573" stroke="black" stroke-width="1.69111" stroke-linecap="round"></path>
    <path d="M617.467 206.786C619.472 211.474 623.396 217.821 629.822 216.027C642.326 212.535 647.91 199.974 636.586 205.097C633.336 206.567 631.165 207.97 626.937 203.813" stroke="black" stroke-width="1.69111" stroke-linecap="round"></path>
    <path d="M838.26 125.035C826.448 103.707 835.683 95.1369 841.241 91.0352C840.584 107.186 851.658 115.863 857.531 118.081L856.963 122.851C855.926 121.542 843.479 122.185 838.26 125.035Z" fill="black"></path>
    <path d="M879.377 92.4227C878.506 97.4087 874.242 100.681 869.981 99.9274C865.716 99.1736 862.815 94.6336 863.686 89.6476C864.557 84.6617 868.821 81.3894 873.082 82.1429C877.346 82.897 880.247 87.4367 879.377 92.4227Z" stroke="black" stroke-width="1.69111"></path>
    <path d="M857.377 91.4227C856.506 96.4086 852.242 99.6809 847.981 98.9274C843.716 98.1735 840.815 93.6336 841.686 88.6476C842.557 83.6617 846.821 80.3894 851.082 81.1429C855.346 81.8971 858.247 86.4367 857.377 91.4227Z" stroke="black" stroke-width="1.69111"></path>
    <path d="M857.531 89.0352L863.531 90.0352" stroke="black" stroke-width="1.69111" stroke-linecap="round"></path>
    <path d="M855.531 110.035C856.681 110.79 859.895 111.846 863.531 110.035" stroke="black" stroke-width="1.69111" stroke-linecap="round"></path>
    <path d="M860.531 95.0352C858.871 99.0873 855.478 102.469 859.231 105.035" stroke="black" stroke-width="1.69111" stroke-linecap="round"></path>
    <path d="M849.067 93.9618C850.428 94.2008 851.722 93.2922 851.962 91.9324C852.202 90.5728 851.29 89.2771 849.933 89.0381C848.572 88.7994 847.275 89.708 847.038 91.0675C846.799 92.4271 847.707 93.7229 849.067 93.9618Z" fill="black"></path>
    <path d="M870.069 94.9618C871.426 95.2008 872.723 94.2922 872.962 92.9324C873.199 91.5728 872.291 90.2771 870.931 90.0381C869.574 89.7994 868.277 90.708 868.038 92.0675C867.801 93.4271 868.709 94.7232 870.069 94.9618Z" fill="black"></path>
    <path d="M889.244 94.0352C889.574 94.6968 889.894 96.2227 888.531 97.0352" stroke="black" stroke-width="1.69111" stroke-linecap="round"></path>
    <path d="M843.298 79.0352C840.056 85.2111 837.14 100.301 850.089 113.315C863.036 126.33 876.916 114.124 882.238 106.394L886 99.9024C887.563 101.281 890.993 102.522 892.199 96.4543C893.408 90.3867 891.025 89.5617 889.681 89.908C888.954 90.0708 887.36 90.7914 886.802 92.3683" stroke="black" stroke-width="1.69111" stroke-linecap="round"></path>
    <path d="M879.531 92.0352L888.531 91.0352" stroke="black" stroke-width="1.69111" stroke-linecap="round"></path>
    <path d="M872 86C873.692 86.1895 877.057 87.2548 876.999 90" stroke="black" stroke-width="1.69111" stroke-linecap="round"></path>
    <path d="M847 84.5067C848.147 84.032 850.957 83.4664 853 85" stroke="black" stroke-width="1.69111" stroke-linecap="round"></path>
    <path d="M824.069 171.553C823.149 175.353 822.064 186.267 825.135 191.17" stroke="black" stroke-width="1.69111" stroke-linecap="round"></path>
    <path d="M855.911 119.192C844.696 117.123 822.827 122.815 820.736 141.451" stroke="black" stroke-width="1.69111" stroke-linecap="round"></path>
    <path d="M884.118 158.7C883.573 155.669 882.664 149.568 887.03 143.48" stroke="black" stroke-width="1.69111" stroke-linecap="round"></path>
    <path d="M874.704 121.981C898.383 118.053 904.15 128.494 908.476 146.481C913.245 166.329 907.549 194.239 884.107 201.992C872.665 202.008 858.95 197.031 845.874 182.249C843.588 179.663 840.767 175.612 844.64 172.635C849.477 168.913 875.388 172.221 884.107 179.663" stroke="black" stroke-width="1.69111" stroke-linecap="round"></path>
    <path d="M820.186 141.541C817.176 143.52 819.496 152.702 820.751 156.379L821.84 155.963L821.535 154.523L821.637 153.083C822.202 151.561 825.459 150.419 827.343 153.083C829.179 155.686 831.516 157.917 832.791 158.472C837.76 161.363 836.867 156.633 835.802 153.907C835.176 152.638 833.393 148.314 832.791 144.204C832.189 140.096 829.592 139.639 828.087 139.449C826.707 139.322 823.196 139.563 820.186 141.541Z" fill="black"></path>
    <path d="M808.898 146.862L814.986 146.186" stroke="black" stroke-width="1.69111" stroke-linecap="round"></path>
    <path d="M815.326 142.803L805.855 141.112" stroke="black" stroke-width="1.69111" stroke-linecap="round"></path>
    <path d="M817.017 140.097L811.268 136.377" stroke="black" stroke-width="1.69111" stroke-linecap="round"></path>
    <path d="M825.81 137.839C824.748 137.533 822.583 137.692 822.428 140.775" stroke="black" stroke-width="1.69111" stroke-linecap="round"></path>
    <path d="M829.191 135.79C828.22 135.541 826.428 135.702 825.741 137.787C825.592 138.237 825.498 138.777 825.471 139.422" stroke="black" stroke-width="1.69111" stroke-linecap="round"></path>
    <path d="M834.958 152.95C834.832 151.781 835.377 149.715 836.452 148.522C837.951 146.862 838.39 143.725 838.516 141.88C838.637 141.143 839.087 139.138 837.389 138.929C835.891 138.744 835.705 140.036 835.519 140.958C835.455 142.126 833.645 143.131 833.645 140.22C833.645 138.006 833.831 137.453 833.831 135.239C833.831 132.841 834.207 130.627 831.396 130.627C829.15 130.812 829.526 132.287 829.201 135.977C829.171 136.753 829.211 137.612 829.336 138.56" stroke="black" stroke-width="1.69111" stroke-linecap="round"></path>
    <path d="M819.412 149.906C815.895 155.384 810.642 172.062 821.414 186.096" stroke="black" stroke-width="1.69111" stroke-linecap="round"></path>
    <path d="M822.819 166.141C821.953 167.397 821.145 170.25 824.845 171.607C828.542 172.965 838.316 177.958 841.705 180.346" stroke="black" stroke-width="1.69111" stroke-linecap="round"></path>
    <path d="M822.798 161.744C821.879 162.689 820.915 164.466 822.995 166.28C823.735 166.929 824.858 167.574 826.488 168.17" stroke="black" stroke-width="1.69111" stroke-linecap="round"></path>
    <path d="M827.163 159.875C826.148 158.217 821.44 154.901 819.945 157.848C819.384 158.954 819.752 160.427 822.604 161.717L826.023 164.112" stroke="black" stroke-width="1.69111" stroke-linecap="round"></path>
    <path d="M846.78 168.508C846.039 164.589 842.342 162.163 840.678 155.072C840.106 152.636 839.386 150.407 837.167 150.593C835.392 150.742 834.762 153.019 835.135 154.512C836.058 156.751 836.981 160.334 834.025 159.737C831.066 159.14 828.231 155.631 827.183 153.952C826.321 152.459 823.672 150.78 821.64 153.765C821.271 154.308 821.085 155.948 823.304 156.992" stroke="black" stroke-width="1.69111" stroke-linecap="round"></path>
    <path d="M887.027 152.95C884.365 157.182 881.764 164.04 879.586 176.287" stroke="black" stroke-width="1.69111" stroke-linecap="round"></path>
    <path d="M893.117 202.253C874.687 208.004 851.488 203.957 836.41 197.834C823.007 191.528 806.999 177.245 785.407 186.333C776.099 191.034 766.899 197.543 756.773 220.104C753.949 226.869 752.122 234.445 765.868 235.476C771.658 233.207 775.98 235.956 802.595 205.96" stroke="black" stroke-width="1.69111" stroke-linecap="round"></path>
    <path d="M852.531 248.269C835.566 249.771 797.472 247.828 780.828 228.035" stroke="black" stroke-width="1.69111" stroke-linecap="round"></path>
    <path d="M893.119 202.33C892.561 216.55 887.792 246.112 854.87 248.167C854.122 248.215 853.378 248.253 852.637 248.278C827.105 249.238 805.117 236.228 793.344 216.404" stroke="black" stroke-width="1.69111" stroke-linecap="round"></path>
    <path d="M805.517 183.823C791.467 179.88 761.051 182.039 747.275 215.519C745.236 221.213 742.94 228.313 755.227 230.064" stroke="black" stroke-width="1.69111" stroke-linecap="round"></path>
    <path d="M738.335 233.642C740.605 226.632 750.775 229.839 756.484 232.319C758.96 234.675 764.047 235.401 766.282 235.47C766.282 239.235 765.298 240.984 763.867 241.952C763.309 242.558 759.585 243.258 749.155 241.226C738.724 239.194 737.777 235.818 738.335 233.642Z" fill="black"></path>
    <path d="M729.751 222.892C731.831 218.702 741.01 222.208 745.525 224.393C746.513 228.237 752.374 229.917 755.182 230.278L755.797 232.041C744.703 227.163 739.671 230.173 738.849 232.77C735.818 231.708 727.674 227.086 729.751 222.892Z" fill="black"></path>
    <path d="M856.929 216.197C851.379 210.673 838.879 198.95 833.254 196.242" stroke="black" stroke-width="1.69111" stroke-linecap="round"></path>
    <path d="M893.117 202.33C893.117 200.889 893.117 198.549 893.117 197.257" stroke="black" stroke-width="1.69111" stroke-linecap="round"></path>
    <path d="M857.429 119.124C860.277 120.886 866.635 123.353 869.263 119.124C872.554 113.839 875.51 120.108 874.198 124.164C872.882 128.22 861.721 134.972 854.223 120.163" stroke="black" stroke-width="1.69111" stroke-linecap="round"></path>
    <path d="M863.014 128.937C860.789 130.039 856.541 133.544 857.369 138.745" stroke="black" stroke-width="1.69111" stroke-linecap="round"></path>
    <path d="M865.382 136.039C861.976 140.606 858.1 141.545 856.588 141.443" stroke="black" stroke-width="1.69111" stroke-linecap="round"></path>
    <path d="M864.495 129.951C864.238 131.357 864.292 133.743 865.381 136.107C866.305 138.106 867.962 140.088 870.793 141.451" stroke="black" stroke-width="1.69111" stroke-linecap="round"></path>
    <path d="M868.428 129.275C870.508 130.953 873.937 135.457 872.469 141.451" stroke="black" stroke-width="1.69111" stroke-linecap="round"></path>
    <path d="M383.422 218.791L333.607 220.911" stroke="black" stroke-width="2.6497" stroke-linecap="round"></path>
    <path d="M383.951 218.791L449.664 224.62" stroke="black" stroke-width="2.6497" stroke-linecap="round"></path>
    <path d="M450.194 224.62L436.945 286.093" stroke="black" stroke-width="2.6497" stroke-linecap="round"></path>
    <path d="M436.945 286.093L382.361 295.632" stroke="black" stroke-width="2.6497" stroke-linecap="round"></path>
    <path d="M382.361 295.102V229.919" stroke="black" stroke-width="2.6497" stroke-linecap="round"></path>
    <path d="M382.361 230.449L449.664 225.149" stroke="black" stroke-width="2.6497" stroke-linecap="round"></path>
    <path d="M382.362 230.449L333.607 220.91" stroke="black" stroke-width="2.6497" stroke-linecap="round"></path>
    <path d="M332.547 220.91L335.727 269.665" stroke="black" stroke-width="2.6497" stroke-linecap="round"></path>
    <path d="M335.727 269.664L382.361 295.631" stroke="black" stroke-width="2.6497" stroke-linecap="round"></path>
    <path d="M382.893 218.791V229.39" stroke="black" stroke-width="2.6497" stroke-linecap="round"></path>
    <rect x="407.414" y="245.721" width="18.6767" height="9.53683" rx="3.97455" transform="rotate(-3.53924 407.414 245.721)" stroke="black" stroke-width="2.6497"></rect>
    <path d="M362.633 171.754C366.607 171.224 375.139 168.203 377.471 160.36" stroke="black" stroke-width="2.6497" stroke-linecap="round"></path>
    <path d="M349.648 165.394C352.298 165.483 358.392 164.176 361.572 158.24" stroke="black" stroke-width="2.6497" stroke-linecap="round"></path>
    <path d="M337.725 155.856C341.964 154.976 351.185 152.233 354.153 148.309" stroke="black" stroke-width="2.6497" stroke-linecap="round"></path>
    <path d="M376.065 185.08C349.42 191.027 324.579 164.503 314.722 149.435C314.347 148.86 314.627 148.098 315.277 147.88L357.221 133.814C357.612 133.683 358.042 133.79 358.331 134.085C372.297 148.38 398.245 154.68 411.922 156.4C412.889 156.521 413.229 157.779 412.445 158.357L376.459 184.9C376.342 184.987 376.207 185.049 376.065 185.08Z" stroke="black" stroke-width="2.6497" stroke-linecap="round"></path>
    <path d="M381.981 309.41L334.402 270.459L382.097 296.956L438.271 287.152L443.57 287.947L381.981 309.41Z" fill="black"></path>
  </g>
  <defs>
    <clipPath id="clip0_315_4882">
      <rect width="1396" height="417" fill="white"></rect>
    </clipPath>
  </defs>
</svg>
